<svg width="878" height="510" viewBox="0 0 878 510" fill="none" xmlns="http://www.w3.org/2000/svg">
<path d="M556.318 448.829C544.377 454.666 545.501 465.868 545.396 473.389C545.273 481.4 529.96 485.59 529.96 485.59C534.034 472.775 531.137 459.575 531.137 459.575L556.318 448.829Z" fill="#A0505A"/>
<path d="M568.979 478.332L566.257 479.805L560.55 466.78C560.252 466.096 559.584 465.693 558.9 465.693C558.671 465.693 558.425 465.745 558.197 465.833C557.618 466.079 557.196 466.622 557.126 467.253L554.615 486.133L521.585 504.084C520.601 501.735 526.73 495.845 529.978 485.59C529.978 485.59 545.308 481.4 545.413 473.389C545.519 465.868 544.413 454.649 556.336 448.829L558.847 447.759C572.544 454.053 568.979 478.332 568.979 478.332Z" fill="#FE5244"/>
<path d="M558.829 355.269V447.759L531.506 459.592L511.031 366.734C520.197 367.084 535.474 365.156 558.829 355.269Z" fill="white" stroke="#00A3FF" stroke-width="5" stroke-miterlimit="10"/>
<path d="M538.741 363.403L544.132 454.088" stroke="#00A3FF" stroke-width="5" stroke-miterlimit="10"/>
<path d="M558.829 355.269V379.478L512.33 372.764L511.031 366.734C520.197 367.084 535.474 365.156 558.829 355.269Z" fill="#00A3FF"/>
<path d="M696.535 292.51L678.87 296.227C678.273 296.349 677.675 296.157 677.254 295.718C676.956 295.385 676.797 294.982 676.797 294.561C676.797 294.105 676.973 293.65 677.342 293.317L687.175 284.113L684.998 282.167C684.998 282.167 662.17 286.637 660.871 300.855L662.609 302.748C671.582 311.548 681.258 307.008 688.018 304.729C694.48 302.555 702.189 312.565 703.717 314.634C703.734 314.634 703.77 314.634 703.787 314.634C713.972 314.301 721.189 317.912 722.963 316.281L696.535 292.51Z" fill="#FE5244"/>
<path d="M662.626 302.748C671.6 311.548 681.275 307.008 688.036 304.729C695.235 302.31 703.822 314.634 703.822 314.634C691.074 315.037 680.204 321.786 680.204 321.786L662.626 302.748Z" fill="#A0505A"/>
<path d="M553.544 356.058C553.544 356.058 557.986 386.017 592.07 385.456C626.154 384.895 679.835 321.611 679.835 321.611L660.958 300.96L553.544 356.058Z" fill="white" stroke="#00A3FF" stroke-width="5" stroke-miterlimit="10"/>
<path d="M573.193 347.924C574.317 355.813 579.62 363.245 595.793 362.982C619.815 362.597 653.759 331.13 671.705 312.583" stroke="#00A3FF" stroke-width="5" stroke-miterlimit="10"/>
<path d="M702.312 239.849C699.204 238.675 691.811 242.707 686.245 249.719C680.257 257.239 677.833 265.233 680.467 267.319L596.127 222.547C591.983 220.355 587.206 224.107 588.383 228.63L613.915 325.187C527.432 381.214 499.705 364.42 499.705 364.42V47.1201C499.705 47.1376 499.705 47.1376 499.722 47.1551C500.46 49.0309 508.379 47.7161 517.423 44.1925C525.746 40.9669 532.103 37.0051 532.507 34.9365L532.524 34.9189V134.895C532.524 141.171 535.913 146.938 541.392 150.006L702.312 239.849Z" fill="#006BA7"/>
<path d="M702.312 239.849C699.204 238.674 691.811 242.706 686.245 249.719C680.257 257.239 677.833 265.233 680.467 267.319L596.127 222.547C591.983 220.355 587.206 224.107 588.383 228.63L613.915 325.573C591.93 339.825 573.738 348.976 558.829 355.286C535.474 365.156 520.197 367.102 511.031 366.751C503.041 366.453 499.705 364.42 499.705 364.42V47.1201C499.705 47.1376 499.705 47.1376 499.722 47.1551C500.46 49.0309 508.379 47.7161 517.423 44.1925C525.746 40.9669 532.103 37.0051 532.507 34.9365L532.524 34.9189V134.895C532.524 141.171 535.913 146.938 541.392 150.006L702.312 239.849Z" fill="#006BA7"/>
<path d="M581.341 214.763L680.468 268.441" stroke="white" stroke-width="6" stroke-miterlimit="10" stroke-linecap="round"/>
<path d="M543.745 151.303L532.63 215.797L589.366 176.792L543.745 151.303Z" fill="#00A3FF"/>
<path d="M543.745 151.303L532.63 215.797L589.366 176.792" stroke="white" stroke-width="6" stroke-miterlimit="10" stroke-linecap="round"/>
<path d="M543.289 26.8199L470.046 41.8083C467.342 42.3693 464.55 39.9676 463.83 36.444C463.11 32.9204 464.725 29.6247 467.43 29.0638L540.672 14.0753L543.289 26.8199Z" fill="white" stroke="#00A3FF" stroke-width="5" stroke-miterlimit="10" stroke-linecap="round"/>
<path d="M543.263 26.8303C545.97 26.2762 547.58 22.9746 546.857 19.456C546.135 15.9373 543.354 13.534 540.646 14.0881C537.939 14.6421 536.329 17.9438 537.052 21.4624C537.774 24.9811 540.555 27.3844 543.263 26.8303Z" fill="white" stroke="#00A3FF" stroke-width="5" stroke-miterlimit="10" stroke-linecap="round"/>
<path d="M501.496 33.201C501.496 33.201 477.808 59.777 480.389 65.6322C483.76 68.9805 486.5 70.453 486.096 71.6977C485.657 73.0475 479.985 81.1991 479.985 81.1991L479.423 75.1511L473.997 76.9392C473.997 76.9392 479.722 68.5948 480.09 66.0354C477.737 64.2473 472.943 60.5308 473.101 57.9363C473.277 55.184 481.671 45.4021 487.764 38.6529L478.58 41.6857L476.772 33.2185L493.295 30.1857L501.496 33.201Z" fill="#FE5244"/>
<path d="M498.282 34.3579C501.037 34.3579 503.27 32.1289 503.27 29.3793C503.27 26.6297 501.037 24.4007 498.282 24.4007C495.528 24.4007 493.295 26.6297 493.295 29.3793C493.295 32.1289 495.528 34.3579 498.282 34.3579Z" fill="white" stroke="#FE5244" stroke-width="5" stroke-miterlimit="10"/>
<path d="M532.507 34.9364C532.103 37.005 525.746 40.9669 517.423 44.1925C508.38 47.6986 500.46 49.0309 499.723 47.1551C499.723 47.1376 499.723 47.1376 499.705 47.1201C499.073 45.2268 505.781 40.8968 514.771 37.4082C523.815 33.9021 531.734 32.5698 532.472 34.4456C532.524 34.5858 532.542 34.7436 532.507 34.9364Z" fill="#9A3B82"/>
<path d="M526.414 20.2109L525.448 34.13L524.991 40.7916C522.796 41.9486 520.215 43.1056 517.423 44.1925C512.682 46.0332 508.257 47.2603 505.008 47.7687V35.0416L518.336 32.3069C518.336 32.3069 519.074 27.5561 520.478 23.5767C521.866 19.5798 526.414 20.2109 526.414 20.2109Z" fill="#A0505A"/>
<path d="M518.705 31.7284C518.512 32.5173 512.717 34.358 512.717 38.5653" stroke="#73325A" stroke-width="4" stroke-miterlimit="10" stroke-linecap="round"/>
<path d="M525.448 34.1301L524.991 40.7916C522.796 41.9486 520.215 43.1056 517.423 44.1925C512.682 46.0332 508.257 47.2603 505.008 47.7687V42.0187C507.607 40.4936 510.996 38.8808 514.771 37.4082C518.705 35.8656 522.428 34.7436 525.448 34.1301Z" fill="#73325A"/>
<path d="M516.72 27.1705L501.847 30.5714C501.057 30.7467 500.319 30.1156 500.319 29.2391V20.2285C500.319 19.0189 501.057 17.967 502.128 17.6164L516.826 12.8306C517.757 12.5326 518.687 13.2689 518.687 14.3032V24.576C518.67 25.8206 517.862 26.9075 516.72 27.1705Z" fill="#A0505A"/>
<path d="M505.587 29.169C504.78 29.3443 504.007 28.7307 504.007 27.8892V19.2468C504.007 18.0898 504.762 17.073 505.868 16.7399" stroke="#73325A" stroke-width="4" stroke-miterlimit="10" stroke-linecap="round"/>
<path d="M509.872 28.2398C509.064 28.4151 508.292 27.7841 508.292 26.9251V18.0197C508.292 16.8276 509.047 15.7758 510.153 15.4427" stroke="#73325A" stroke-width="4" stroke-miterlimit="10" stroke-linecap="round"/>
<path d="M514.666 27.2231C513.858 27.3984 513.086 26.7498 513.086 25.8733V16.6523C513.086 15.4252 513.841 14.3383 514.947 13.9877" stroke="#73325A" stroke-width="4" stroke-miterlimit="10" stroke-linecap="round"/>
<path d="M695.78 257.274C689.792 264.812 683.084 269.388 680.45 267.302C677.816 265.216 680.239 257.239 686.227 249.701C691.811 242.689 699.186 238.657 702.295 239.831L702.909 240.182C705.561 242.286 701.768 249.754 695.78 257.274Z" fill="#9A3B82"/>
<path d="M722.875 269.949L718.889 272.052C717.308 272.894 715.342 272.298 714.499 270.72L710.302 262.936L703.945 260.763C704.648 261.026 707.387 262.428 706.527 267.529L691.601 261.972L686.473 260.062L681.609 256.959C682.75 254.645 684.313 252.155 686.262 249.719C687.895 247.668 689.669 245.879 691.443 244.407L696.517 247.948L701.715 248.509L710.162 249.403C711.514 249.543 712.813 249.999 713.955 250.718L720.698 255.504C721.681 256.205 722.331 257.257 722.489 258.449L723.858 268.02C723.981 268.809 723.577 269.58 722.875 269.949Z" fill="#A0505A"/>
<path d="M701.715 248.509C700.293 251.191 698.221 254.241 695.797 257.292C694.41 259.027 693.005 260.605 691.601 261.972L686.473 260.062L681.609 256.959C682.75 254.645 684.313 252.155 686.262 249.719C687.895 247.668 689.669 245.879 691.442 244.407L696.517 247.948L701.715 248.509Z" fill="#73325A"/>
<path d="M548.381 104.497L585.942 121.133L599.34 160.261L572.122 140.837L559.426 125.358L548.381 104.497Z" fill="#00A3FF"/>
<path d="M559.426 125.358C559.426 125.358 571.718 127.462 576.67 141.135L579.287 138.506C579.287 138.506 574.528 125.2 561.955 121.782L559.426 125.358Z" fill="#9A3B82"/>
<path d="M632.687 142.345C628.472 139.961 624.574 138.646 623.327 139.12C623.415 138.909 623.468 138.664 623.45 138.418C623.38 137.647 622.748 137.068 621.993 137.068C621.958 137.068 621.922 137.068 621.87 137.068C621.062 137.139 620.465 137.84 620.518 138.646C620.518 138.699 620.535 138.751 620.535 138.786L616.075 141.644C615.074 142.293 613.845 142.328 612.791 141.749C611.738 141.171 611.123 140.119 611.123 138.927V132.528C611.123 129.741 609.736 127.164 607.4 125.621C605.065 124.078 602.132 123.833 599.569 124.92L591.069 128.706L587.838 119.258L550.084 102.551C549.856 102.446 549.575 102.551 549.47 102.797C549.365 103.024 549.47 103.305 549.716 103.41L587.083 119.959L600.411 158.894C600.482 159.087 600.657 159.209 600.85 159.209C600.903 159.209 600.956 159.192 601.008 159.192C601.254 159.104 601.377 158.841 601.307 158.596L591.386 129.601L599.955 125.779C602.238 124.797 604.837 125.025 606.891 126.392C608.963 127.76 610.192 130.039 610.192 132.528V138.927C610.192 140.469 611 141.837 612.352 142.573C612.984 142.924 613.669 143.099 614.354 143.099C615.127 143.099 615.899 142.871 616.584 142.433L621.009 139.61C621.273 139.856 621.624 139.996 621.993 139.996C622.028 139.996 622.08 139.996 622.116 139.996C622.432 139.979 622.713 139.856 622.923 139.663C622.923 140.908 626.119 143.695 630.509 146.184C631.457 146.728 632.406 147.219 633.301 147.639C633.846 147.184 634.302 146.64 634.671 145.991C635.04 145.36 635.268 144.677 635.373 143.975C634.53 143.45 633.635 142.889 632.687 142.345ZM622.028 139.26C621.624 139.295 621.29 138.997 621.255 138.611C621.22 138.225 621.519 137.875 621.905 137.84C622.291 137.805 622.642 138.103 622.677 138.488C622.713 138.874 622.414 139.225 622.028 139.26Z" fill="#FFCF2D"/>
<path d="M556.985 148.411L550.488 184.488L572.631 167.449V144.957L556.985 148.411Z" fill="#A0505A"/>
<path d="M556.986 148.411L556.178 152.933L565.976 172.567L572.631 167.449V144.957L556.986 148.411Z" fill="#73325A"/>
<path d="M559.795 125.726C559.795 125.726 548.715 122.974 545.256 129.39C541.796 135.806 551.911 137.577 552.332 135.333C552.525 134.351 534.122 134.369 537.213 148.27C540.426 162.75 554.914 157.772 554.914 157.772L556.599 148.411L559.795 125.726Z" fill="white" stroke="#9A3B82" stroke-width="4" stroke-miterlimit="10"/>
<path d="M572.456 146.482C572.456 146.482 555.914 168.009 570.454 177.16C582.114 184.488 585.117 174.163 581.991 172.743C578.602 171.2 570.823 200.3 594.774 200.213C618.779 200.125 611.439 170.201 599.34 160.279C593.563 155.545 574.282 142.31 574.282 142.31L572.456 146.482Z" fill="white" stroke="#9A3B82" stroke-width="4" stroke-miterlimit="10"/>
<path d="M571.964 141.083L573.211 141.872C574.423 142.643 574.774 144.238 574.019 145.448L573.773 145.816C573 147.026 571.402 147.394 570.191 146.623L568.856 145.781C567.381 146.833 558.513 152.741 553.035 146.868C547.714 141.171 560.006 124.499 560.006 124.499C570.436 127.76 574.51 137.016 574.51 137.016L571.964 141.083Z" fill="#A0505A"/>
<path d="M567.768 128.742C567.768 128.742 565.432 136.472 572.122 141.749C576.056 144.852 576.284 141.118 576.284 141.118C576.284 141.118 575.775 133.527 567.768 128.742Z" fill="white" stroke="#9A3B82" stroke-width="4" stroke-miterlimit="10"/>
<path d="M412.642 326.852C410.799 320.138 380.35 326.431 346.81 338.615C314.728 350.273 288.651 365.997 288.37 372.326L270.775 244.197C270.512 242.391 268.967 241.059 267.14 241.059C266.122 241.059 265.209 241.462 264.541 242.128C263.874 242.794 263.47 243.706 263.47 244.722V354.147C263.26 351.149 255.516 348.748 245.998 348.748C236.481 348.748 228.754 351.149 228.526 354.147V231.189C228.526 220.811 233.969 211.204 242.855 205.84L254.392 198.881L301.909 170.236L346.108 143.379V97.5375C346.108 99.5009 354.238 101.079 363.826 101.079C373.396 101.079 381.544 99.5184 381.544 97.5375V147.236C381.544 158.245 376.153 168.641 367.548 175.513L340.664 194.691C336.081 197.951 334.975 204.297 338.171 208.925C355.994 234.678 410.764 309.83 412.625 326.361C412.642 326.519 412.642 326.694 412.642 326.852Z" fill="#00A3FF"/>
<path d="M345.581 139.453V152.951" stroke="white" stroke-width="6" stroke-miterlimit="10" stroke-linecap="round"/>
<path d="M254.427 198.881L313.025 238.008L301.944 170.236L289.248 177.739L292.234 205.525L267.053 190.992L254.427 198.881Z" stroke="white" stroke-width="6" stroke-miterlimit="10" stroke-linecap="round"/>
<path d="M410.763 328.535C408.656 322.733 380.736 329.429 347.179 341.613C313.622 353.797 287.861 369.206 289.986 375.008C292.093 380.811 321.295 374.815 354.852 362.632C388.41 350.448 412.888 334.338 410.763 328.535Z" stroke="#00A3FF" stroke-width="5" stroke-miterlimit="10" stroke-linecap="round"/>
<path d="M334.343 449.583L332.411 452.948L330.269 456.7C311.743 459.014 308.477 446.918 308.477 446.918L311.269 441.378C318.749 445.971 328.232 448.408 334.343 449.583Z" fill="#E57281"/>
<path d="M401.071 361.563C387.901 384.229 340.541 450.564 340.541 450.564C340.541 450.564 338.065 450.301 334.343 449.583C328.232 448.39 318.749 445.971 311.251 441.378C309.513 440.309 307.897 439.134 306.44 437.82L340.77 368.224L349.444 349.975L354.256 339.842C354.835 339.632 355.415 339.439 355.977 339.246C356.257 339.141 356.538 339.053 356.837 338.948C357.697 338.65 358.54 338.37 359.383 338.089C360.086 337.861 360.77 337.633 361.455 337.388C363.545 336.687 365.599 336.038 367.601 335.407C381.052 331.165 392.554 328.307 400.316 327.431C402.036 329.833 404.003 333.286 405.127 337.616C406.76 343.944 406.567 352.114 401.071 361.563Z" fill="white" stroke="#3F4D79" stroke-width="5" stroke-miterlimit="10"/>
<path d="M343.579 501.315C342.982 503.927 339.733 504.856 337.837 502.962L295.394 460.732L308.67 446.9C308.67 446.9 311.743 458.979 330.286 456.682C345.265 479.261 345.23 494.04 343.579 501.315Z" fill="white" stroke="#00A3FF" stroke-width="5" stroke-miterlimit="10"/>
<path d="M341.841 503.979C338.961 505.084 335.712 504.505 333.377 502.454L311.216 483.013C310.672 482.522 310.601 481.698 311.058 481.12C311.497 480.576 311.462 479.77 310.953 479.279L309.144 477.526C308.652 477.035 307.862 477.018 307.335 477.473L306.914 477.824C306.405 478.262 305.667 478.262 305.175 477.824L293.27 467.499C291.724 466.166 291.672 463.782 293.129 462.362L295.201 460.364L337.907 503.401C339.136 504.628 340.91 504.681 342.174 503.857L341.841 503.979Z" fill="#00A3FF"/>
<path d="M336.064 462.327C336.064 462.327 339.663 465.518 331.059 469.392" stroke="#00A3FF" stroke-width="5" stroke-miterlimit="10" stroke-linecap="round"/>
<path d="M338.329 466.166C338.329 466.166 341.929 469.357 333.324 473.231" stroke="#00A3FF" stroke-width="5" stroke-miterlimit="10" stroke-linecap="round"/>
<path d="M340.594 470.005C340.594 470.005 344.194 473.196 335.589 477.07" stroke="#00A3FF" stroke-width="5" stroke-miterlimit="10" stroke-linecap="round"/>
<path d="M405.127 337.616C393.713 337.598 382.018 339.579 370.744 342.7C369.849 339.544 368.584 337.037 367.601 335.407C381.052 331.165 392.554 328.307 400.315 327.431C402.054 329.85 404.021 333.303 405.127 337.616Z" fill="#3F4D79"/>
<path d="M286.105 447.812L282.716 452.142L280.047 455.543C261.381 455.175 259.888 442.746 259.888 442.746L263.945 436.943C270.986 442.588 280.504 446.094 286.105 447.812Z" fill="#E57281"/>
<path d="M371.131 356.882C370.112 361.212 367.935 365.875 363.931 370.678C347.495 390.435 290.741 449.092 290.741 449.092C290.741 449.092 268.58 444.113 259.115 432.192L297.326 378.006L311.427 358.004C321.155 352.832 333.517 347.345 347.179 342.367C354.308 339.772 361.174 337.441 367.601 335.407C368.567 337.038 369.849 339.562 370.744 342.7C371.868 346.592 372.413 351.465 371.131 356.882Z" fill="white" stroke="#3F4D79" stroke-width="5" stroke-miterlimit="10"/>
<path d="M286.79 501.613C285.824 504.119 282.488 504.575 280.872 502.419L244.927 454.544L260.046 442.746C260.046 442.746 261.346 455.175 280.029 455.543C291.637 480.033 289.477 494.653 286.79 501.613Z" fill="white" stroke="#00A3FF" stroke-width="5" stroke-miterlimit="10"/>
<path d="M284.7 503.856C281.698 504.54 278.554 503.488 276.553 501.157L257.412 478.788C256.938 478.227 256.991 477.403 257.518 476.895C258.044 476.421 258.097 475.615 257.676 475.054L256.13 473.073C255.709 472.53 254.936 472.39 254.339 472.758L253.883 473.056C253.321 473.406 252.601 473.301 252.162 472.81L241.801 460.942C240.467 459.4 240.748 457.05 242.398 455.858L244.734 454.176L280.855 502.717C281.891 504.102 283.647 504.4 285.016 503.786L284.7 503.856Z" fill="#00A3FF"/>
<path d="M285.333 462.064C285.333 462.064 288.441 465.728 279.362 468.34" stroke="#00A3FF" stroke-width="5" stroke-miterlimit="10" stroke-linecap="round"/>
<path d="M287.387 466.184C287.387 466.184 290.495 469.848 281.417 472.46" stroke="#00A3FF" stroke-width="5" stroke-miterlimit="10" stroke-linecap="round"/>
<path d="M289.073 470.303C289.073 470.303 292.181 473.967 283.102 476.579" stroke="#00A3FF" stroke-width="5" stroke-miterlimit="10" stroke-linecap="round"/>
<path d="M370.762 342.7C363.422 344.733 356.257 347.24 349.462 349.957C320.119 361.755 297.625 377.778 297.344 377.971L311.444 357.969C321.173 352.797 333.535 347.31 347.196 342.332C349.585 341.473 351.938 340.631 354.273 339.807C354.853 339.597 355.432 339.404 355.994 339.211C356.275 339.106 356.556 339.018 356.854 338.913C357.715 338.615 358.558 338.335 359.401 338.054C360.103 337.826 360.788 337.598 361.473 337.353C363.562 336.652 365.617 336.003 367.619 335.372C368.585 337.055 369.849 339.562 370.762 342.7Z" fill="#3F4D79"/>
<path d="M263.084 356.514C263.084 359.564 255.445 362.053 246.016 362.053C236.586 362.053 228.947 359.582 228.947 356.514C228.947 356.479 228.947 356.426 228.947 356.391C229.158 353.393 236.726 350.992 246.016 350.992C255.305 350.992 262.873 353.393 263.084 356.391C263.084 356.426 263.084 356.479 263.084 356.514Z" fill="white" stroke="#3FB1B5" stroke-width="5" stroke-miterlimit="10" stroke-linecap="round"/>
<path d="M256.2 352.394V366.787C256.2 371.45 253.619 375.71 249.51 377.901L242.504 381.617C240.8 382.529 238.886 383.002 236.955 383.002C236.129 383.002 235.567 382.319 235.567 381.6C235.567 381.302 235.673 380.986 235.884 380.723L238.5 377.568C238.869 377.13 238.553 376.481 237.991 376.481H222.591L219.781 380.022C218.288 381.898 216.006 383.002 213.617 383.002H212.81C211.809 383.002 211.194 381.933 211.686 381.074L212.002 380.495C211.036 380.899 209.983 381.127 208.911 381.127H208.104C207.103 381.127 206.488 380.057 206.98 379.198L213.284 372.256L217.656 370.538V370.556L239.378 362.036V351.798C241.432 351.535 243.663 351.377 246.016 351.377C249.826 351.36 253.338 351.746 256.2 352.394Z" fill="#E57281"/>
<path d="M256.2 352.394V361.387C253.338 362.036 249.826 362.422 246.016 362.422C243.663 362.422 241.432 362.281 239.378 362.001V351.763C241.432 351.5 243.663 351.342 246.016 351.342C249.809 351.36 253.338 351.746 256.2 352.394Z" fill="#9A3B82"/>
<path d="M381.175 95.6617C381.175 97.6426 373.413 99.2028 363.843 99.2028C354.273 99.2028 346.512 97.6426 346.512 95.6617C346.512 93.6807 354.273 92.0504 363.843 92.0504C373.413 92.0504 381.175 93.6983 381.175 95.6617Z" stroke="#3FB1B5" stroke-width="5" stroke-miterlimit="10" stroke-linecap="round"/>
<path d="M358.558 98.5542C356.415 98.414 354.466 98.2036 352.78 97.9056V80.8836C352.78 80.3226 352.903 79.7617 353.149 79.2533L358.663 67.8936C359.681 65.7899 361.824 64.4576 364.159 64.4576H370.92L356.134 91.6122C356.064 91.7349 356.011 91.8576 355.959 91.9803C355.098 94.1015 356.169 96.8187 358.558 98.5542Z" fill="#E57281"/>
<path d="M371.271 91.6648L373.449 87.8782V98.151C371.657 98.3789 369.638 98.5718 367.478 98.6594L371.271 91.6648Z" fill="#9A3B82"/>
<path d="M403.125 32.2193L367.127 98.3438C365.793 100.798 362.14 101.377 358.944 99.6411C355.748 97.9056 354.256 94.5222 355.59 92.0855L391.588 25.9609L403.125 32.2193Z" fill="white" stroke="#0085FF" stroke-width="5" stroke-miterlimit="10"/>
<path d="M403.112 32.2435C404.446 29.7936 402.944 26.406 399.757 24.677C396.57 22.9479 392.906 23.5323 391.572 25.9821C390.238 28.432 391.74 31.8196 394.927 33.5486C398.114 35.2776 401.778 34.6933 403.112 32.2435Z" fill="white" stroke="#0085FF" stroke-width="5" stroke-miterlimit="10"/>
<path d="M381.07 56.4813L398.085 42.4219L397.822 47.5408L403.266 48.8906L390.271 56.902C400.245 54.7633 418.156 51.7481 420.878 57.0072C421.949 59.0758 419.93 63.3006 418.578 66.3334C417.735 72.7319 451.345 64.8082 451.731 64.7206L446.551 69.5064L451.731 72.4515C451.731 72.4515 423.53 77.8158 416.26 76.3432C412.151 75.5017 415.417 69.9972 418.279 65.9652C419.157 62.8623 412.168 61.8456 383.107 65.0011L381.07 56.4813Z" fill="#FE5244"/>
<path d="M381.315 64.9309C384.089 64.9309 386.338 62.6862 386.338 59.9172C386.338 57.1483 384.089 54.9036 381.315 54.9036C378.542 54.9036 376.293 57.1483 376.293 59.9172C376.293 62.6862 378.542 64.9309 381.315 64.9309Z" fill="white" stroke="#FE5244" stroke-width="5" stroke-miterlimit="10"/>
<path d="M385.249 76.7114L383.633 80.4979L381.737 84.9156L380.718 87.3173L379.155 90.9811C379.12 91.0863 379.068 91.174 379.015 91.2791C379.015 91.2791 379.015 91.2967 378.997 91.2967C378.488 92.1556 377.522 92.6991 376.469 92.6991H364.071C362.579 92.6991 361.543 91.2791 362.105 89.9644L363 87.8607L364.985 83.2152L366.688 79.2182L368.18 75.6946C368.619 74.6603 369.691 73.9942 370.867 73.9942H383.264C384.792 73.9766 385.811 75.3966 385.249 76.7114Z" fill="#E57281"/>
<path d="M367.127 79.2007C367.636 78.6222 368.391 78.2891 369.199 78.2891H381.034C382.281 78.2891 383.177 79.3585 383.054 80.4979" stroke="#9A3B82" stroke-width="4" stroke-miterlimit="10" stroke-linecap="round"/>
<path d="M365.511 83.2151C366.021 82.7068 366.723 82.4088 367.478 82.4088H379.314C380.666 82.4088 381.614 83.6709 381.263 84.9156" stroke="#9A3B82" stroke-width="4" stroke-miterlimit="10" stroke-linecap="round"/>
<path d="M363.65 87.8432C364.159 87.3699 364.844 87.0894 365.564 87.0894H377.399C378.804 87.0894 379.77 88.4392 379.313 89.7189" stroke="#9A3B82" stroke-width="4" stroke-miterlimit="10" stroke-linecap="round"/>
<path d="M377.716 64.4401V64.7557C377.716 67.9637 375.117 70.5758 371.886 70.5758H365.775V64.4401H377.716Z" fill="#E57281"/>
<path d="M229.316 201.58C228.754 202.422 228.175 203.211 227.595 203.929C226.963 203.772 226.348 203.509 225.787 203.123C225.225 202.737 224.75 202.281 224.364 201.738C224.821 200.949 225.33 200.108 225.909 199.266C228.754 195.059 231.81 192.166 232.758 192.797C233.706 193.429 232.161 197.373 229.316 201.58Z" fill="#FFCF2D"/>
<path d="M255.2 138.418L233.267 170.744C233.004 171.13 233.373 171.603 233.812 171.481L244.295 168.115C243.013 169.64 242.223 171.621 242.223 173.76V183.945C242.223 187.924 239.044 191.167 235.076 191.272C234.83 190.817 234.338 190.501 233.759 190.501C233.355 190.501 232.986 190.659 232.705 190.939C232.424 191.22 232.266 191.588 232.284 191.991C232.284 192.798 232.951 193.464 233.776 193.464C234.514 193.464 235.129 192.903 235.234 192.202C239.624 192.009 243.153 188.38 243.153 183.945V173.76C243.153 171.2 244.418 168.869 246.314 167.466L267.404 160.699L294.481 138.418H255.2ZM234.163 192.342C234.057 192.447 233.917 192.5 233.776 192.5C233.636 192.5 233.495 192.447 233.39 192.342C233.285 192.237 233.232 192.096 233.232 191.956C233.232 191.816 233.285 191.676 233.39 191.57C233.495 191.465 233.636 191.413 233.776 191.413C233.934 191.413 234.057 191.465 234.163 191.57C234.268 191.676 234.321 191.798 234.321 191.956C234.338 192.114 234.268 192.237 234.163 192.342Z" fill="#00A3FF"/>
<path d="M231.353 170.674C231.265 170.674 231.177 170.657 231.09 170.587C230.879 170.446 230.826 170.148 230.967 169.938L253.83 136.244H295.236C295.5 136.244 295.71 136.455 295.71 136.718C295.71 136.981 295.5 137.191 295.236 137.191H254.321L231.739 170.464C231.651 170.604 231.511 170.674 231.353 170.674Z" fill="#00A3FF"/>
<path d="M254.462 165.24L251.828 164.048L251.968 163.645C252.021 163.487 253.303 159.77 256.464 155.826C259.396 152.162 264.541 147.657 272.461 146.885L272.918 146.85L273.374 150.164L272.443 150.286L272.11 147.867C264.77 148.709 259.958 152.951 257.201 156.404C254.725 159.49 253.426 162.505 253.022 163.557L254.866 164.398L254.462 165.24Z" fill="white"/>
<path d="M267.808 190.799L262.487 173.444L274.937 167.361L280.065 171.253L288.88 177.932L291.549 204.473L267.808 190.799Z" fill="#E57281"/>
<path d="M280.065 171.253L270.565 192.394L267.808 190.799L262.487 173.444L274.937 167.361L280.065 171.253Z" fill="#9A3B82"/>
<path d="M269.511 174.583C268.615 174.671 266.807 173.76 264.752 172.462L262.346 174.408C260.959 175.53 258.922 175.337 257.798 173.952C257.307 173.356 257.061 172.62 257.061 171.901C257.061 170.972 257.465 170.043 258.255 169.394L259.238 168.588C256.657 166.66 254.638 164.994 254.638 164.994C254.638 164.994 259.115 151.566 273.427 150.199C273.427 150.199 281.013 165.853 281.522 167.343C282.031 168.851 274.568 174.075 269.511 174.583Z" fill="#E57281"/>
<path d="M259.238 168.588C256.657 166.66 254.638 164.994 254.638 164.994C254.638 164.994 256.288 160.033 260.819 155.826C256.078 160.542 263.154 165.801 259.238 168.588Z" fill="#FFCF2D"/>
</svg>
