<svg width="208" height="600" viewBox="0 0 208 600" fill="none" xmlns="http://www.w3.org/2000/svg">
<g clip-path="url(#clip0)">
<path d="M138.561 544.736C141.796 551.031 153.811 568.29 153.881 576.604C153.947 583.363 148.226 588.583 151.169 593.257C155.027 599.38 202.691 595.214 203.952 594.931C205.214 594.648 182.041 583.515 175.784 572.103C170.941 563.227 167.449 553.685 165.422 543.788L138.561 544.736Z" fill="#C36F0B"/>
<path d="M166.21 547.375C161.391 549.571 152.315 553.325 144.249 554.454C141.875 550.445 139.686 546.928 138.561 544.736L165.422 543.776C165.422 543.776 165.653 545.106 166.21 547.375Z" fill="#B65A18"/>
<path d="M174.008 595.584L186.134 580.811C186.134 580.811 205.832 587.882 205.832 595.584H174.008Z" fill="#00A3FF"/>
<path d="M179.56 572.288V573.232C179.56 573.692 179.376 574.134 179.049 574.459C178.722 574.785 178.279 574.968 177.816 574.968H158.782C168.402 580.04 171.667 595.584 171.667 595.584H151.103C146.442 588.149 151.825 577.188 153.445 574.246C153.24 573.955 153.131 573.608 153.131 573.253V572.309C153.131 571.848 153.315 571.407 153.642 571.081C153.969 570.756 154.412 570.573 154.875 570.573H177.816C178.275 570.573 178.716 570.753 179.042 571.074C179.368 571.395 179.554 571.831 179.56 572.288Z" fill="#00A3FF"/>
<path d="M206.256 595.584H149.929C148.966 595.584 148.185 596.362 148.185 597.32V598.264C148.185 599.223 148.966 600 149.929 600H206.256C207.219 600 208 599.223 208 598.264V597.32C208 596.362 207.219 595.584 206.256 595.584Z" fill="#3CBFD4"/>
<path d="M16.2109 544.736C17.6329 550.038 22.7809 568.18 20.9344 574.693C19.0878 581.205 13.9274 585.986 15.3329 592.626C16.8538 599.692 58.4876 595.223 59.7695 594.94C61.0514 594.657 37.6604 581.731 37.3802 572.112C37.0999 562.493 40.1829 544.745 40.1829 544.745L16.2109 544.736Z" fill="#C36F0B"/>
<path d="M16.2108 544.736H40.1829C40.1829 544.736 39.5894 548.146 38.9464 552.788C30.2207 553.608 21.2517 550.736 17.4309 549.283C16.9322 547.383 16.487 545.783 16.2108 544.736Z" fill="#B65A18"/>
<path d="M29.5653 595.847C29.5653 595.847 34.973 589.281 42.59 587.357C50.9407 585.239 54.9924 586.368 59.4892 588.637C63.85 590.832 66.2901 595.568 66.2901 595.568L29.5653 595.847Z" fill="#00A3FF"/>
<path d="M39.779 572.288V573.232C39.779 573.692 39.5953 574.134 39.2684 574.459C38.9414 574.785 38.4979 574.968 38.0355 574.968H21.6639C29.7797 578.969 29.3798 595.765 29.3798 595.765H15.2505C10.5476 588.268 17.2701 577.66 19.162 574.939C18.4036 574.804 18.111 574.094 18.111 573.232V572.288C18.111 571.328 18.4778 570.552 19.4423 570.552H38.0355C38.4979 570.552 38.9414 570.735 39.2684 571.061C39.5953 571.386 39.779 571.828 39.779 572.288Z" fill="#00A3FF"/>
<path d="M66.8919 595.584H14.4879C13.525 595.584 12.7444 596.362 12.7444 597.32V598.264C12.7444 599.223 13.525 600 14.4879 600H66.8919C67.8548 600 68.6354 599.223 68.6354 598.264V597.32C68.6354 596.362 67.8548 595.584 66.8919 595.584Z" fill="#3CBFD4"/>
<path d="M169.643 542.644C144.851 550.555 118.945 544.736 118.945 544.736C112.083 528.269 100.492 494.529 100.492 420.458C100.492 407.38 85.007 383.189 72.955 355.017C66.9001 395.569 60.8782 436.926 59.8849 444.169C57.9106 458.593 48.344 543.887 48.344 543.887C17.8431 549.722 1.31071 543.477 1.31071 543.477C-3.83736 464.396 22.3316 428.739 21.3012 414.717C20.6582 405.902 12.7321 345.833 12.7362 305.047C12.7362 261.959 29.5653 238.006 51.2704 219.068L51.493 219.212C53.4673 220.443 68.858 228.868 109.268 224.575C112.565 249.821 132.593 321.421 146.916 432.543C153.589 484.327 169.643 542.644 169.643 542.644Z" fill="#3CBFD4"/>
<path d="M83.3706 293.713C80.2504 313.468 77.3611 334.983 73.161 363.286" stroke="white" stroke-width="4" stroke-miterlimit="10"/>
<path d="M193.932 103.596C193.871 105.492 192.193 108.627 194.2 108.36C195.235 108.221 202.584 106.095 203.837 108.726C204.387 109.983 204.492 111.39 204.134 112.714C206.075 114.955 205.065 117.105 205.065 117.105C206.248 118.501 206.755 120.437 206.17 121.389C206.17 121.389 208.4 125.161 206.858 126.293C202.077 129.798 193.953 131.402 189.856 130.869C186.971 130.491 183.43 129.186 181.843 123.388C181.192 121.016 182.828 114.397 184.349 111.541C184.972 110.371 187.202 105.738 187.989 104.45C189.105 102.564 189.761 100.445 189.906 98.2614C189.906 98.2614 194.106 98.2983 193.932 103.596Z" fill="#C36F0B"/>
<path d="M118.599 104.519C128.256 107.515 149.38 172.533 149.38 172.533C149.38 172.533 181.658 122.288 183.27 121.878C184.881 121.467 190.948 130.253 190.948 130.253C190.948 130.253 176.436 207.492 148.045 209.285C127.123 210.615 109.672 142.642 107.924 132.371C105.517 118.143 107.895 101.195 118.599 104.519Z" fill="#C36F0B"/>
<path d="M182.214 68.4608L162.092 68.3706V49.3461C162.092 45.0866 165.872 41.6231 170.517 41.6231H173.794C178.439 41.6231 182.214 45.0866 182.214 49.3461V68.4608ZM163.6 66.8892L180.71 66.963V49.3461C180.71 45.9155 177.606 43.1209 173.794 43.1209H170.517C166.704 43.1209 163.6 45.9155 163.6 49.3461V66.8892Z" fill="#00A3FF"/>
<path d="M179.601 52.469V86.0531C179.602 86.4635 179.521 86.8701 179.364 87.2494C179.206 87.6288 178.975 87.9735 178.684 88.2639C178.393 88.5544 178.047 88.7848 177.666 88.942C177.285 89.0991 176.877 89.1801 176.464 89.1801H165.023C164.77 89.1794 164.518 89.1491 164.272 89.0898C163.737 88.9533 163.247 88.6812 162.849 88.3001C162.451 87.919 162.159 87.4417 162.001 86.9149C161.921 86.6345 161.881 86.3445 161.882 86.0531V52.469C161.882 51.4318 162.087 50.4048 162.486 49.4466C162.885 48.4884 163.469 47.6179 164.206 46.8847C164.943 46.1515 165.817 45.57 166.78 45.1734C167.743 44.7769 168.774 44.5731 169.816 44.5736H171.679C172.72 44.5741 173.751 44.7788 174.712 45.1759C175.673 45.5729 176.547 46.1547 177.283 46.8878C178.018 47.621 178.602 48.4912 178.999 49.4488C179.397 50.4064 179.602 51.4327 179.601 52.469Z" fill="#3CBFD4"/>
<path d="M166.519 52.6414H161.886V54.1392H166.519V52.6414Z" fill="#00A3FF"/>
<path d="M166.519 56.8722H161.886V58.37H166.519V56.8722Z" fill="#00A3FF"/>
<path d="M166.519 61.0989H161.886V62.5968H166.519V61.0989Z" fill="#00A3FF"/>
<path d="M195.107 154.35C194.808 154.35 194.52 154.231 194.309 154.021C194.097 153.81 193.978 153.524 193.978 153.225V56.7902C193.978 56.492 194.097 56.206 194.309 55.9951C194.52 55.7842 194.808 55.6658 195.107 55.6658C195.407 55.6658 195.694 55.7842 195.906 55.9951C196.118 56.206 196.237 56.492 196.237 56.7902V153.225C196.237 153.373 196.207 153.519 196.151 153.656C196.094 153.792 196.011 153.916 195.906 154.021C195.801 154.125 195.676 154.208 195.539 154.264C195.402 154.321 195.255 154.35 195.107 154.35Z" fill="#00A3FF"/>
<path d="M198.932 153.225H190.874V598.765H198.932V153.225Z" fill="white" stroke="#00A3FF" stroke-width="6" stroke-miterlimit="10" stroke-linecap="round"/>
<path d="M167.916 71.1939L161.882 76.6887V74.6574L166.902 70.09L167.916 71.1939Z" fill="#00A3FF"/>
<path d="M171.675 71.8915L161.882 80.8128V78.7815L170.657 70.7876L171.675 71.8915Z" fill="#00A3FF"/>
<path d="M176.205 71.8915L161.882 84.9369V82.9056L175.187 70.7876L176.205 71.8915Z" fill="#00A3FF"/>
<path d="M179.601 71.4442V72.9215L162.784 88.2281C162.415 87.8609 162.145 87.4062 162.001 86.9067L179.313 71.1323L179.601 71.4442Z" fill="#00A3FF"/>
<path d="M179.601 75.1293V77.1483L166.412 89.1678H165.027C164.774 89.1671 164.522 89.1368 164.276 89.0775L179.601 75.1293Z" fill="#00A3FF"/>
<path d="M179.601 79.2411V81.2765L170.925 89.1801H168.691L179.601 79.2411Z" fill="#00A3FF"/>
<path d="M179.601 83.3571V85.3883L175.442 89.1801H173.212L179.601 83.3571Z" fill="#00A3FF"/>
<path d="M197.366 68.2064V70.8287H182.181C182.122 71.1132 181.989 71.3771 181.794 71.5933C181.599 71.8096 181.35 71.9706 181.073 72.0597C180.908 72.1146 180.735 72.1423 180.562 72.1418H161.123C160.686 72.1418 160.267 71.9689 159.958 71.661C159.648 71.3532 159.475 70.9357 159.475 70.5004V68.5306C159.475 68.0953 159.648 67.6778 159.958 67.3699C160.267 67.0621 160.686 66.8892 161.123 66.8892H180.574C180.748 66.8887 180.92 66.9164 181.085 66.9712C181.363 67.0604 181.612 67.2214 181.806 67.4376C182.001 67.6539 182.135 67.9178 182.194 68.2023L197.366 68.2064Z" fill="#FFB000"/>
<path d="M203.524 126.556C196.785 128.661 195.28 128.518 194.835 125.526C194.695 124.578 195.507 124.139 196.241 123.934C195.901 124 195.559 124.048 195.214 124.077C194.188 124.328 192.449 120.848 193.978 119.883C193.339 119.563 192.663 117.294 192.667 115.275C191.48 114.454 191.381 112.029 192.778 111.541C194.081 111.089 201.702 109.899 201.368 108.668L203.524 126.556Z" fill="#C36F0B"/>
<path d="M203.4 112.85C200.385 114.009 197.27 114.888 194.093 115.476C191.698 116.165 190.956 112.193 192.79 111.553C194.093 111.101 200.185 109.123 201.376 108.68" stroke="#B65A18" stroke-width="3" stroke-miterlimit="10" stroke-linecap="round"/>
<path d="M204.179 117.208C196.286 119.826 194.481 119.941 194.481 119.941C193.327 120.318 191.295 116.35 194.093 115.464" stroke="#B65A18" stroke-width="3" stroke-miterlimit="10" stroke-linecap="round"/>
<path d="M205.288 121.34C197.869 123.942 195.21 124.073 195.21 124.073C194.101 124.348 192.552 120.191 195.276 119.834" stroke="#B65A18" stroke-width="3" stroke-miterlimit="10" stroke-linecap="round"/>
<path d="M197.341 123.761C197.341 123.761 194.584 123.843 194.835 125.526C195.28 128.518 196.781 128.661 203.52 126.556" stroke="#B65A18" stroke-width="3" stroke-miterlimit="10" stroke-linecap="round"/>
<path d="M116.312 176.419C116.312 176.419 110.611 216.553 109.272 224.571C107.932 232.59 61.7356 231.547 51.5384 218.994C51.5384 218.994 45.8009 181.339 35.6202 152.413C26.7584 127.245 25.7898 98.4871 33.1966 94.9046C43.13 90.0952 66.1129 85.1913 70.6757 77.4437C71.6159 75.7379 72.442 73.9723 73.1487 72.1582L73.1899 72.191C88.9762 84.1695 101.465 83.0041 101.465 83.0041C100.488 86.7671 100.06 90.3455 101.362 91.7489C104.581 95.2247 120.858 100.818 121.484 107.027C121.752 109.698 112.532 119.383 120.083 145.117C125.05 162.093 127.923 168.462 116.312 176.419Z" fill="#FE7523"/>
<g opacity="0.5">
<path opacity="0.5" d="M86.0704 79.7335L32.0425 95.7377C32.3806 95.4044 32.7703 95.1273 33.1966 94.9169C36.5847 93.2755 41.4895 91.634 46.6665 89.849L83.9559 78.7897C84.6814 79.1344 85.3862 79.4504 86.0704 79.7335Z" fill="white"/>
<path opacity="0.5" d="M101.449 83.0041C101.416 83.1395 101.374 83.2749 101.346 83.4145L28.6709 104.93C28.7451 104.368 28.8275 103.822 28.9223 103.288L97.8503 82.8933C99.044 83.0379 100.248 83.075 101.449 83.0041Z" fill="white"/>
<path opacity="0.5" d="M101.251 91.6463L28.2505 113.26C28.2505 112.727 28.2505 112.206 28.2505 111.693L100.665 90.247C100.749 90.7522 100.95 91.2312 101.251 91.6463Z" fill="white"/>
<path opacity="0.5" d="M110.261 97.178L28.7039 121.328C28.6585 120.815 28.6132 120.306 28.572 119.801L108.402 96.1644C109.008 96.4927 109.639 96.8456 110.261 97.178Z" fill="white"/>
<path opacity="0.5" d="M118.871 102.829L29.7343 129.223C29.6519 128.723 29.5736 128.226 29.4952 127.73L117.495 101.676C117.989 102.057 118.447 102.439 118.871 102.829Z" fill="white"/>
<path opacity="0.5" d="M117.923 117.947C117.816 118.476 117.713 119.026 117.618 119.588L33.1512 144.62C33.0111 144.14 32.8792 143.656 32.7391 143.176L117.923 117.947Z" fill="white"/>
<path opacity="0.5" d="M120.994 108.841C120.788 109.345 120.528 109.936 120.244 110.626L31.214 136.983C31.1027 136.491 30.9955 136.003 30.8966 135.514L120.994 108.841Z" fill="white"/>
<path opacity="0.5" d="M117.111 127.955L35.5006 152.117C35.3357 151.646 35.1709 151.174 35.0143 150.698L117.091 126.392C117.087 126.905 117.095 127.422 117.111 127.955Z" fill="white"/>
<path opacity="0.5" d="M117.919 135.92L38.0025 159.582L37.545 158.154L117.692 134.418C117.758 134.911 117.837 135.42 117.919 135.92Z" fill="white"/>
<path opacity="0.5" d="M119.642 143.627L40.2571 167.12C40.1211 166.64 39.981 166.156 39.8449 165.676L119.259 142.162C119.378 142.638 119.506 143.118 119.642 143.627Z" fill="white"/>
<path opacity="0.5" d="M121.855 151.157L42.3057 174.708C42.182 174.224 42.0542 173.744 41.9265 173.259L121.423 149.721C121.592 150.193 121.719 150.689 121.855 151.157Z" fill="white"/>
<path opacity="0.5" d="M123.842 158.769L44.2264 182.349C44.111 181.865 43.9956 181.376 43.8719 180.888L123.521 157.3C123.653 157.805 123.743 158.293 123.842 158.769Z" fill="white"/>
<path opacity="0.5" d="M124.345 165.261C124.292 165.814 124.203 166.362 124.077 166.903L45.9946 190.023C45.8874 189.543 45.7761 189.05 45.669 188.558L124.345 165.261Z" fill="white"/>
<path opacity="0.5" d="M117.68 175.438C117.247 175.763 116.79 176.091 116.312 176.419C116.312 176.419 116.262 176.784 116.167 177.449L47.6433 197.737C47.5403 197.249 47.4372 196.761 47.3383 196.264L117.68 175.438Z" fill="white"/>
<path opacity="0.5" d="M115.178 184.38C115.104 184.905 115.026 185.451 114.943 186.022L49.1725 205.489C49.0777 205.005 48.987 204.509 48.8922 204.008L115.178 184.38Z" fill="white"/>
<path opacity="0.5" d="M113.95 192.944C113.876 193.482 113.793 194.028 113.715 194.586L50.5904 213.274L50.3307 211.784L113.95 192.944Z" fill="white"/>
<path opacity="0.5" d="M112.709 201.517C112.631 202.059 112.553 202.604 112.478 203.158L53.2118 220.697C52.7749 220.326 52.3619 219.927 51.9753 219.503L112.709 201.517Z" fill="white"/>
<path opacity="0.5" d="M111.464 210.106C111.382 210.66 111.304 211.202 111.225 211.747L63.376 225.888C62.5517 225.615 61.7507 225.33 60.9731 225.035L111.464 210.106Z" fill="white"/>
<path opacity="0.5" d="M110.191 218.662L109.944 220.303L79.9207 229.192C78.6677 229.066 77.4188 228.914 76.1741 228.736L110.191 218.662Z" fill="white"/>
</g>
<path d="M204.484 194.323C204.483 194.894 204.425 195.463 204.311 196.022H151.553C151.552 194.597 151.192 193.194 150.506 191.943C149.82 190.691 148.83 189.631 147.626 188.86C146.422 188.088 145.042 187.629 143.614 187.526C142.186 187.422 140.755 187.677 139.451 188.266C141.913 186.834 144.68 186.002 147.526 185.837C147.88 185.816 148.239 185.804 148.601 185.804H195.923C196.121 185.804 196.335 185.804 196.504 185.825C198.668 185.971 200.696 186.93 202.177 188.508C203.658 190.085 204.483 192.164 204.484 194.323Z" fill="white" stroke="#84D7EC" stroke-width="5" stroke-miterlimit="10"/>
<path d="M180.97 196.022L157.039 241.055C155.756 243.466 153.837 245.483 151.49 246.89C149.142 248.297 146.453 249.041 143.713 249.041H94.9445C97.6848 249.041 100.373 248.297 102.721 246.89C105.069 245.483 106.987 243.466 108.27 241.055L132.535 195.427C133.611 193.393 135.067 191.582 136.826 190.092C137.642 189.403 138.518 188.787 139.443 188.25C140.747 187.66 142.178 187.406 143.606 187.509C145.034 187.613 146.413 188.072 147.617 188.843C148.821 189.615 149.812 190.675 150.498 191.926C151.184 193.177 151.544 194.58 151.544 196.006L180.97 196.022Z" fill="white" stroke="#84D7EC" stroke-width="5" stroke-miterlimit="10"/>
<path d="M31.7127 96.6979C24.4832 99.5048 0 150.222 0 187.306C0 199.334 33.0193 218.978 89.1988 236.016C105.599 240.994 123.628 241.228 127.049 240.428C130.47 239.627 139.13 221.383 139.13 221.383C139.13 221.383 135.709 220.784 132.889 224.194C128.438 229.582 121.01 229.479 117.589 228.437C114.168 227.394 118.068 220.435 118.068 220.435C118.068 220.435 110.137 219.778 107.52 220.18C104.903 220.582 95.0269 225.396 95.0269 225.396C95.0269 225.396 32.2156 182.308 27.1829 181.077C27.1829 181.077 43.7895 138.231 46.3614 124.947C49.5847 108.336 40.488 93.296 31.7127 96.6979Z" fill="#C36F0B"/>
<path d="M105.517 71.5016C103.904 75.2351 102.551 79.0741 101.465 82.9918C101.465 82.9918 88.9762 84.1572 73.1899 72.1787L73.1487 72.1459C76.3843 64.2013 80.2051 51.9478 80.7409 50.2284L81.2356 50.4007L105.517 71.5016Z" fill="#B65A18"/>
<path d="M110.339 73.455C115.978 73.455 120.726 56.6301 120.726 50.6059C120.726 44.5818 116.992 26.1524 107.73 23.5425C98.4686 20.9326 82.5463 21.7328 82.3443 31.9549C82.1423 42.1771 85.1718 57.6231 86.5815 60.229C87.9911 62.8348 99.4661 73.455 110.339 73.455Z" fill="#C36F0B"/>
<path d="M87.5913 26.731C96.4036 22.3032 102.599 32.5869 115.129 30.7608C127.659 28.9347 129.596 17.3665 128.66 12.1016C127.453 5.28544 121.414 -0.730483 114.585 0.0738283C114.585 0.0738283 118.9 2.94637 114.997 5.88867C109.132 10.296 107.895 0.869933 96.6468 1.67424C90.7692 2.08461 92.8342 9.39317 86.3795 5.88457C78.3132 1.49368 64.2292 1.23105 65.8449 20.9695C65.8449 20.9695 57.519 22.2581 57.3871 31.0521C57.2841 37.9585 64.3941 40.5233 68.6601 43.9745C78.3256 51.7714 77.6332 60.0484 77.6332 60.0484C77.6332 60.0484 83.3583 58.4069 80.7409 49.9863C78.5976 43.0922 82.8018 42.6285 84.5659 43.3712C88.7948 45.1768 80.7863 30.1575 87.5913 26.731Z" fill="#FFB000"/>
<path d="M66.22 20.5961C66.22 20.5961 57.7622 17.6702 55.8827 25.6969" stroke="#FFB000" stroke-width="3" stroke-miterlimit="10"/>
<path d="M87.0678 26.3781C96.1357 22.533 103.646 34.1217 115.03 34.0642C127.692 34.0027 133.091 21.6384 132.506 16.3242" stroke="#FFB000" stroke-width="3" stroke-miterlimit="10"/>
<path d="M75.6506 41.1799L64.2086 14.2354C64.0318 13.8169 63.94 13.3677 63.9385 12.9138C63.937 12.4598 64.0258 12.01 64.1997 11.5903C64.3737 11.1707 64.6294 10.7895 64.9521 10.4687C65.2748 10.1479 65.6581 9.89397 66.0799 9.72144" stroke="#00A3FF" stroke-width="6" stroke-miterlimit="10" stroke-linecap="round"/>
<path d="M77.666 40.5949L75.0226 41.4719C70.5392 42.9593 68.1159 47.7837 69.6099 52.2474L71.5411 58.017C73.0351 62.4807 77.8807 64.8934 82.3641 63.4059L85.0075 62.5289C89.4909 61.0415 91.9142 56.2171 90.4202 51.7534L88.4891 45.9838C86.995 41.5201 82.1494 39.1074 77.666 40.5949Z" fill="white" stroke="#3CBFD4" stroke-width="6" stroke-miterlimit="10"/>
</g>
<defs>
<clipPath id="clip0">
<rect width="208" height="600" fill="white"/>
</clipPath>
</defs>
</svg>
