<svg width="449" height="600" viewBox="0 0 449 600" fill="none" xmlns="http://www.w3.org/2000/svg">
<g clip-path="url(#clip0)">
<g filter="url(#filter0_d)">
<path d="M26.6265 228.566H219.913C220.965 228.565 222.007 228.771 222.979 229.172C223.952 229.573 224.835 230.161 225.58 230.903C226.324 231.644 226.915 232.525 227.317 233.494C227.72 234.463 227.928 235.501 227.928 236.55V238.664C227.926 240.782 227.081 242.813 225.578 244.31C224.076 245.807 222.038 246.648 219.913 246.648H27.0192" fill="white"/>
<path d="M26.6265 228.566H219.913C220.965 228.565 222.007 228.771 222.979 229.172C223.952 229.573 224.835 230.161 225.58 230.903C226.324 231.644 226.915 232.525 227.317 233.494C227.72 234.463 227.928 235.501 227.928 236.55V238.664C227.926 240.782 227.081 242.813 225.578 244.31C224.076 245.807 222.038 246.648 219.913 246.648H27.0192" stroke="#3F4D79" stroke-width="6" stroke-miterlimit="10" stroke-linecap="round"/>
<path d="M173.858 335.342V246.945H191.309V334.937" fill="white"/>
<path d="M173.858 252.496V246.945H191.309V266.237L173.858 252.496Z" fill="#F0E1D4"/>
<path d="M173.858 328.594V246.945H191.309V334.082" stroke="#3F4D79" stroke-width="6" stroke-miterlimit="10" stroke-linecap="round"/>
<path d="M192.018 220.622V225.516L121.06 208.329L50.103 225.516V220.622L113.632 200.102V139.526H129.414V200.403L192.018 220.622Z" fill="white" stroke="#00A3FF" stroke-width="6" stroke-miterlimit="10"/>
<path d="M231.579 180.679H29.4517C27.0688 180.679 25.1147 178.664 24.9387 176.1C24.922 175.833 24.8919 175.568 24.8484 175.304L1.45319 48.9392C1.23396 47.8793 1.35556 46.7776 1.80068 45.7906C2.14485 45.004 2.70757 44.3319 3.42245 43.8537C4.13734 43.3755 4.97454 43.1111 5.83528 43.0917H207.962C210.345 43.0917 212.299 45.1113 212.475 47.6752C212.492 47.9405 212.522 48.2047 212.565 48.4669L235.952 174.836C236.171 175.896 236.049 176.998 235.604 177.985C235.26 178.769 234.698 179.439 233.985 179.917C233.272 180.394 232.437 180.659 231.579 180.679Z" fill="white" stroke="#00A3FF" stroke-width="4" stroke-miterlimit="10"/>
<path d="M225.96 174.607H33.1388C30.8371 174.607 28.9733 172.565 28.9733 170.037L7.31102 52.9785C7.31102 50.4551 9.17488 48.4084 11.4765 48.4084H204.293C206.59 48.4084 208.459 50.4551 208.459 52.9785L230.121 170.037C230.121 172.565 228.257 174.607 225.96 174.607Z" fill="#C9E5FF" stroke="#00A3FF" stroke-width="2" stroke-miterlimit="10"/>
<path d="M170.866 81.8595L139.485 82.1453L108.105 82.4312L45.5668 82.387L44.1228 82.3982L42.6789 82.4093C42.6789 82.4093 28.1518 82.4063 28.1246 82.3762L28.0146 67.9033L28.0095 67.231L29.2903 67.2212C29.2903 67.2212 30.1916 67.2164 30.725 67.2101L155.976 66.2441L159.021 66.2206C159.032 66.2511 173.293 66.0804 173.32 66.1104L173.44 81.8396L172.958 81.8433L172.589 81.8462L172.221 81.849C172.221 81.849 171.398 81.853 170.866 81.8595Z" fill="#CACACA"/>
<path d="M85.9238 96.2357L74.3894 96.3444L62.8549 96.453L39.8676 96.3934L39.3369 96.3975L38.8061 96.4016C38.8061 96.4016 33.4664 96.391 33.4564 96.3775L33.4069 89.8646L33.4046 89.5621L33.8753 89.5585C33.8753 89.5585 34.2066 89.5569 34.4027 89.5544L80.4409 89.1994L81.5602 89.1907C81.564 89.2044 86.8059 89.1367 86.816 89.1502L86.8698 96.2284L86.6926 96.2297L86.5573 96.2308L86.4219 96.2318C86.4219 96.2318 86.1194 96.2331 85.9238 96.2357Z" fill="#CACACA"/>
<path d="M203.601 151.157L192.066 151.266L180.532 151.375L157.544 151.315L157.014 151.319L156.483 151.323C156.483 151.323 151.143 151.313 151.133 151.299L151.084 144.786L151.081 144.484L151.552 144.48C151.552 144.48 151.883 144.478 152.079 144.476L198.118 144.121L199.237 144.112C199.241 144.126 204.483 144.058 204.493 144.072L204.547 151.15L204.369 151.151L204.234 151.152L204.099 151.153C204.099 151.153 203.796 151.155 203.601 151.157Z" fill="#CACACA"/>
<path d="M87.9238 109.795L76.3894 109.904L64.8549 110.012L41.8676 109.953L41.3369 109.957L40.8061 109.961C40.8061 109.961 35.4664 109.95 35.4564 109.937L35.4069 103.424L35.4046 103.121L35.8753 103.118C35.8753 103.118 36.2066 103.116 36.4027 103.114L82.4409 102.759L83.5602 102.75C83.564 102.764 88.8059 102.696 88.816 102.71L88.8698 109.788L88.6926 109.789L88.5573 109.79L88.4219 109.791C88.4219 109.791 88.1194 109.792 87.9238 109.795Z" fill="#CACACA"/>
<path d="M90.9238 123.354L79.3894 123.463L67.8549 123.572L56.3613 123.542L44.8676 123.512L44.3369 123.516L43.8061 123.52C43.8061 123.52 38.4664 123.51 38.4564 123.496L38.4069 116.983L38.4046 116.681L38.8753 116.677C38.8753 116.677 39.2066 116.676 39.4027 116.673L85.4409 116.318L86.5602 116.309C86.564 116.323 91.8059 116.255 91.816 116.269L91.8698 123.347L91.6926 123.348L91.5573 123.349L91.4219 123.35C91.4219 123.35 91.1194 123.352 90.9238 123.354Z" fill="#CACACA"/>
<path d="M93.9238 136.914L82.3894 137.022L70.8549 137.131L47.8676 137.071L47.3369 137.075L46.8061 137.08C46.8061 137.08 41.4664 137.069 41.4564 137.055L41.4069 130.543L41.4046 130.24L41.8753 130.236C41.8753 130.236 42.2066 130.235 42.4027 130.232L88.4409 129.877L89.5602 129.869C89.564 129.882 94.8059 129.815 94.816 129.828L94.8698 136.906L94.6926 136.908L94.5573 136.909L94.4219 136.91C94.4219 136.91 94.1194 136.911 93.9238 136.914Z" fill="#CACACA"/>
<path d="M283.866 566.197L289.882 525.021C269.849 527.27 260.845 525.021 260.845 525.021L267.696 556.301C267.547 561.375 256.865 581.715 251.214 583.433C245.564 585.152 271.428 590.374 283.866 566.197Z" fill="#FFCFC9"/>
<path d="M236.371 599.627H285.504C285.504 599.627 293.889 583.883 292.58 573.403C290.906 559.909 283.437 558.33 283.437 558.33C276.546 558.33 278.319 575.458 265.169 581.427C258.616 584.401 253.011 582.534 247.342 584.257C234.674 588.107 236.371 599.627 236.371 599.627Z" fill="#081C7E"/>
<path d="M208.68 375.905C213.044 383.876 240.993 439.864 260.85 525.021C260.85 525.021 270.16 527.95 289.886 525.021C289.886 525.021 307.852 421.961 288.049 389.031L208.68 375.905Z" fill="#56CCF2"/>
<path d="M364.648 270.699C364.648 270.699 392.841 341.077 377.767 367.912C352.648 412.601 208.68 375.905 208.68 375.905C208.68 375.905 240.113 414.395 203.553 524.342C203.553 524.342 202.235 528.813 173.989 525.242C173.989 525.242 139.365 366.684 139.361 332.895C139.361 305.231 189.003 296.622 270.178 302.433C270.178 302.433 280.901 292.835 288.979 272.746C288.979 272.719 312.627 280.087 364.648 270.699Z" fill="#2D9CDB"/>
<path d="M197.668 566.197L203.684 525.021C183.651 527.27 174.196 525.021 174.196 525.021L181.498 556.301C181.349 561.375 170.667 581.715 165.017 583.433C159.367 585.152 185.23 590.374 197.668 566.197Z" fill="#FFCFC9"/>
<path d="M150.174 599.627H199.306C199.306 599.627 207.691 583.883 206.383 573.403C204.708 559.909 197.239 558.33 197.239 558.33C190.348 558.33 192.122 575.458 178.971 581.427C172.418 584.401 166.813 582.534 161.145 584.257C148.477 588.107 150.174 599.627 150.174 599.627Z" fill="#081C7E"/>
<path d="M385.011 172.83C377.095 205.063 366.056 261.379 365.745 269.017C365.433 276.655 311.747 281.535 287.851 274.514C287.851 274.514 281.248 236.667 279.597 216.165C267.073 233.707 254.297 247.336 245.614 247.336C213.752 247.336 161.194 229.528 157.209 225.255L159.524 213.245C172.698 213.551 237.342 205.797 237.342 205.797C237.342 205.797 263.029 140.655 279.827 127.201L279.899 127.138C290.929 116.991 319.563 113.739 325.981 112.164C332.619 110.536 366.476 105.957 366.476 105.957C377.961 113.352 392.055 144.123 385.011 172.83Z" fill="#F3E7DD"/>
<path d="M287.973 123.432C287.971 124.186 287.739 124.921 287.307 125.539C286.874 126.158 286.263 126.63 285.554 126.892C284.845 127.154 284.073 127.194 283.34 127.007C282.608 126.819 281.95 126.413 281.456 125.843C283.408 124.385 285.507 123.134 287.72 122.11C287.887 122.531 287.973 122.979 287.973 123.432Z" fill="white"/>
<path d="M299.58 127.129C301.626 127.129 303.285 125.476 303.285 123.437C303.285 121.397 301.626 119.744 299.58 119.744C297.534 119.744 295.875 121.397 295.875 123.437C295.875 125.476 297.534 127.129 299.58 127.129Z" fill="white"/>
<path d="M314.897 127.129C316.943 127.129 318.602 125.476 318.602 123.437C318.602 121.397 316.943 119.744 314.897 119.744C312.851 119.744 311.192 121.397 311.192 123.437C311.192 125.476 312.851 127.129 314.897 127.129Z" fill="white"/>
<path d="M330.21 127.129C332.256 127.129 333.915 125.476 333.915 123.437C333.915 121.397 332.256 119.744 330.21 119.744C328.163 119.744 326.504 121.397 326.504 123.437C326.504 125.476 328.163 127.129 330.21 127.129Z" fill="white"/>
<path d="M345.527 127.129C347.573 127.129 349.232 125.476 349.232 123.437C349.232 121.397 347.573 119.744 345.527 119.744C343.48 119.744 341.821 121.397 341.821 123.437C341.821 125.476 343.48 127.129 345.527 127.129Z" fill="white"/>
<path d="M360.839 127.129C362.885 127.129 364.544 125.476 364.544 123.437C364.544 121.397 362.885 119.744 360.839 119.744C358.793 119.744 357.134 121.397 357.134 123.437C357.134 125.476 358.793 127.129 360.839 127.129Z" fill="white"/>
<path d="M379.812 124.026C379.697 124.721 379.385 125.37 378.913 125.894C378.44 126.419 377.827 126.798 377.146 126.986C376.464 127.175 375.743 127.165 375.067 126.958C374.391 126.751 373.789 126.355 373.331 125.818C372.873 125.28 372.579 124.624 372.484 123.925C372.389 123.227 372.496 122.516 372.793 121.876C373.09 121.237 373.565 120.695 374.161 120.316C374.756 119.936 375.449 119.734 376.156 119.735C376.787 119.725 377.409 119.88 377.961 120.184C378.589 121.448 379.211 122.694 379.812 124.026Z" fill="white"/>
<path d="M280.314 133.773C280.322 134.679 279.996 135.555 279.397 136.236C278.799 136.918 277.97 137.355 277.068 137.466C276.166 137.578 275.255 137.354 274.508 136.839C273.761 136.324 273.23 135.553 273.017 134.673C274.189 133.085 275.444 131.559 276.776 130.103C277.726 130.144 278.623 130.549 279.282 131.232C279.941 131.916 280.31 132.825 280.314 133.773Z" fill="white"/>
<path d="M291.921 137.471C293.968 137.471 295.627 135.817 295.627 133.778C295.627 131.738 293.968 130.085 291.921 130.085C289.875 130.085 288.216 131.738 288.216 133.778C288.216 135.817 289.875 137.471 291.921 137.471Z" fill="white"/>
<path d="M307.239 137.471C309.285 137.471 310.944 135.817 310.944 133.778C310.944 131.738 309.285 130.085 307.239 130.085C305.192 130.085 303.533 131.738 303.533 133.778C303.533 135.817 305.192 137.471 307.239 137.471Z" fill="white"/>
<path d="M322.551 137.471C324.597 137.471 326.256 135.817 326.256 133.778C326.256 131.738 324.597 130.085 322.551 130.085C320.505 130.085 318.846 131.738 318.846 133.778C318.846 135.817 320.505 137.471 322.551 137.471Z" fill="white"/>
<path d="M337.868 137.471C339.914 137.471 341.573 135.817 341.573 133.778C341.573 131.738 339.914 130.085 337.868 130.085C335.822 130.085 334.163 131.738 334.163 133.778C334.163 135.817 335.822 137.471 337.868 137.471Z" fill="white"/>
<path d="M353.181 137.471C355.227 137.471 356.886 135.817 356.886 133.778C356.886 131.738 355.227 130.085 353.181 130.085C351.134 130.085 349.475 131.738 349.475 133.778C349.475 135.817 351.134 137.471 353.181 137.471Z" fill="white"/>
<path d="M368.498 137.471C370.544 137.471 372.203 135.817 372.203 133.778C372.203 131.738 370.544 130.085 368.498 130.085C366.451 130.085 364.792 131.738 364.792 133.778C364.792 135.817 366.451 137.471 368.498 137.471Z" fill="white"/>
<path d="M384.446 137.408C384.238 137.448 384.027 137.467 383.815 137.466C382.963 137.465 382.138 137.172 381.479 136.635C380.819 136.099 380.364 135.353 380.192 134.522C380.019 133.691 380.139 132.826 380.531 132.073C380.922 131.32 381.563 130.724 382.343 130.386C383.151 132.635 383.837 134.983 384.446 137.408Z" fill="white"/>
<path d="M326.261 112.601C326.259 113.501 325.929 114.369 325.33 115.043C324.732 115.717 323.907 116.15 323.01 116.261C322.114 116.371 321.208 116.152 320.463 115.643C319.718 115.135 319.184 114.373 318.963 113.5C322.095 112.938 324.573 112.511 325.981 112.151L326.22 112.092C326.25 112.26 326.264 112.43 326.261 112.601Z" fill="white"/>
<path d="M341.573 112.601C341.578 113.18 341.447 113.752 341.189 114.272C340.932 114.791 340.555 115.242 340.09 115.59C339.625 115.937 339.084 116.17 338.512 116.271C337.939 116.372 337.351 116.337 336.795 116.169C336.239 116.001 335.73 115.705 335.309 115.305C334.889 114.905 334.569 114.412 334.375 113.866C334.181 113.32 334.119 112.736 334.194 112.161C334.268 111.587 334.477 111.038 334.804 110.559C336.492 110.284 338.315 110.005 340.219 109.713C340.647 110.063 340.991 110.504 341.225 111.003C341.46 111.503 341.579 112.049 341.573 112.601Z" fill="white"/>
<path d="M353.181 116.294C355.227 116.294 356.886 114.64 356.886 112.601C356.886 110.561 355.227 108.908 353.181 108.908C351.134 108.908 349.475 110.561 349.475 112.601C349.475 114.64 351.134 116.294 353.181 116.294Z" fill="white"/>
<path d="M368.498 116.294C370.544 116.294 372.203 114.64 372.203 112.601C372.203 110.561 370.544 108.908 368.498 108.908C366.451 108.908 364.792 110.561 364.792 112.601C364.792 114.64 366.451 116.294 368.498 116.294Z" fill="white"/>
<path d="M284.263 148.792C286.309 148.792 287.968 147.139 287.968 145.099C287.968 143.06 286.309 141.406 284.263 141.406C282.217 141.406 280.558 143.06 280.558 145.099C280.558 147.139 282.217 148.792 284.263 148.792Z" fill="white"/>
<path d="M272.656 145.099C272.666 145.981 272.358 146.838 271.789 147.513C271.22 148.188 270.427 148.638 269.553 148.781C268.68 148.923 267.784 148.749 267.029 148.29C266.273 147.831 265.708 147.117 265.435 146.278C266.416 144.605 267.392 142.997 268.364 141.456C268.554 141.421 268.748 141.405 268.941 141.406C269.429 141.406 269.911 141.501 270.361 141.686C270.812 141.871 271.221 142.143 271.566 142.486C271.911 142.829 272.185 143.236 272.372 143.685C272.559 144.133 272.655 144.614 272.656 145.099Z" fill="white"/>
<path d="M299.58 148.792C301.626 148.792 303.285 147.139 303.285 145.099C303.285 143.06 301.626 141.406 299.58 141.406C297.534 141.406 295.875 143.06 295.875 145.099C295.875 147.139 297.534 148.792 299.58 148.792Z" fill="white"/>
<path d="M314.897 148.792C316.943 148.792 318.602 147.139 318.602 145.099C318.602 143.06 316.943 141.406 314.897 141.406C312.851 141.406 311.192 143.06 311.192 145.099C311.192 147.139 312.851 148.792 314.897 148.792Z" fill="white"/>
<path d="M330.21 148.792C332.256 148.792 333.915 147.139 333.915 145.099C333.915 143.06 332.256 141.406 330.21 141.406C328.163 141.406 326.504 143.06 326.504 145.099C326.504 147.139 328.163 148.792 330.21 148.792Z" fill="white"/>
<path d="M345.527 148.792C347.573 148.792 349.232 147.139 349.232 145.099C349.232 143.06 347.573 141.406 345.527 141.406C343.48 141.406 341.821 143.06 341.821 145.099C341.821 147.139 343.48 148.792 345.527 148.792Z" fill="white"/>
<path d="M360.839 148.792C362.885 148.792 364.544 147.139 364.544 145.099C364.544 143.06 362.885 141.406 360.839 141.406C358.793 141.406 357.134 143.06 357.134 145.099C357.134 147.139 358.793 148.792 360.839 148.792Z" fill="white"/>
<path d="M376.156 148.792C378.202 148.792 379.861 147.139 379.861 145.099C379.861 143.06 378.202 141.406 376.156 141.406C374.11 141.406 372.451 143.06 372.451 145.099C372.451 147.139 374.11 148.792 376.156 148.792Z" fill="white"/>
<path d="M276.609 159.133C278.655 159.133 280.314 157.48 280.314 155.44C280.314 153.401 278.655 151.748 276.609 151.748C274.563 151.748 272.904 153.401 272.904 155.44C272.904 157.48 274.563 159.133 276.609 159.133Z" fill="white"/>
<path d="M264.997 155.44C264.997 156.148 264.794 156.84 264.411 157.435C264.027 158.03 263.481 158.503 262.836 158.798C262.191 159.093 261.475 159.197 260.772 159.097C260.07 158.998 259.41 158.7 258.873 158.238C259.988 156.079 261.13 153.952 262.262 151.878C263.048 152.09 263.741 152.553 264.236 153.197C264.73 153.841 264.998 154.63 264.997 155.44Z" fill="white"/>
<path d="M291.921 159.133C293.968 159.133 295.627 157.48 295.627 155.44C295.627 153.401 293.968 151.748 291.921 151.748C289.875 151.748 288.216 153.401 288.216 155.44C288.216 157.48 289.875 159.133 291.921 159.133Z" fill="white"/>
<path d="M307.239 159.133C309.285 159.133 310.944 157.48 310.944 155.44C310.944 153.401 309.285 151.748 307.239 151.748C305.192 151.748 303.533 153.401 303.533 155.44C303.533 157.48 305.192 159.133 307.239 159.133Z" fill="white"/>
<path d="M322.551 159.133C324.597 159.133 326.256 157.48 326.256 155.44C326.256 153.401 324.597 151.748 322.551 151.748C320.505 151.748 318.846 153.401 318.846 155.44C318.846 157.48 320.505 159.133 322.551 159.133Z" fill="white"/>
<path d="M337.868 159.133C339.914 159.133 341.573 157.48 341.573 155.44C341.573 153.401 339.914 151.748 337.868 151.748C335.822 151.748 334.163 153.401 334.163 155.44C334.163 157.48 335.822 159.133 337.868 159.133Z" fill="white"/>
<path d="M353.181 159.133C355.227 159.133 356.886 157.48 356.886 155.44C356.886 153.401 355.227 151.748 353.181 151.748C351.134 151.748 349.475 153.401 349.475 155.44C349.475 157.48 351.134 159.133 353.181 159.133Z" fill="white"/>
<path d="M368.498 159.133C370.544 159.133 372.203 157.48 372.203 155.44C372.203 153.401 370.544 151.748 368.498 151.748C366.451 151.748 364.792 153.401 364.792 155.44C364.792 157.48 366.451 159.133 368.498 159.133Z" fill="white"/>
<path d="M386.897 157.487C386.459 158.141 385.822 158.639 385.081 158.908C384.339 159.177 383.53 159.202 382.773 158.981C382.015 158.76 381.349 158.303 380.87 157.678C380.391 157.052 380.125 156.291 380.111 155.504C380.096 154.718 380.334 153.947 380.79 153.305C381.246 152.662 381.896 152.182 382.644 151.933C383.393 151.685 384.202 151.681 384.953 151.923C385.705 152.164 386.359 152.639 386.82 153.277C386.883 154.677 386.909 156.081 386.897 157.487Z" fill="white"/>
<path d="M284.263 169.969C286.309 169.969 287.968 168.316 287.968 166.276C287.968 164.237 286.309 162.583 284.263 162.583C282.217 162.583 280.558 164.237 280.558 166.276C280.558 168.316 282.217 169.969 284.263 169.969Z" fill="white"/>
<path d="M299.58 169.969C301.626 169.969 303.285 168.316 303.285 166.276C303.285 164.237 301.626 162.583 299.58 162.583C297.534 162.583 295.875 164.237 295.875 166.276C295.875 168.316 297.534 169.969 299.58 169.969Z" fill="white"/>
<path d="M314.897 169.969C316.943 169.969 318.602 168.316 318.602 166.276C318.602 164.237 316.943 162.583 314.897 162.583C312.851 162.583 311.192 164.237 311.192 166.276C311.192 168.316 312.851 169.969 314.897 169.969Z" fill="white"/>
<path d="M330.21 169.969C332.256 169.969 333.915 168.316 333.915 166.276C333.915 164.237 332.256 162.583 330.21 162.583C328.163 162.583 326.504 164.237 326.504 166.276C326.504 168.316 328.163 169.969 330.21 169.969Z" fill="white"/>
<path d="M345.527 169.969C347.573 169.969 349.232 168.316 349.232 166.276C349.232 164.237 347.573 162.583 345.527 162.583C343.48 162.583 341.821 164.237 341.821 166.276C341.821 168.316 343.48 169.969 345.527 169.969Z" fill="white"/>
<path d="M360.839 169.969C362.885 169.969 364.544 168.316 364.544 166.276C364.544 164.237 362.885 162.583 360.839 162.583C358.793 162.583 357.134 164.237 357.134 166.276C357.134 168.316 358.793 169.969 360.839 169.969Z" fill="white"/>
<path d="M376.156 169.969C378.202 169.969 379.861 168.316 379.861 166.276C379.861 164.237 378.202 162.583 376.156 162.583C374.11 162.583 372.451 164.237 372.451 166.276C372.451 168.316 374.11 169.969 376.156 169.969Z" fill="white"/>
<path d="M276.609 180.306C278.655 180.306 280.314 178.653 280.314 176.613C280.314 174.573 278.655 172.92 276.609 172.92C274.563 172.92 272.904 174.573 272.904 176.613C272.904 178.653 274.563 180.306 276.609 180.306Z" fill="white"/>
<path d="M291.921 180.306C293.968 180.306 295.627 178.653 295.627 176.613C295.627 174.573 293.968 172.92 291.921 172.92C289.875 172.92 288.216 174.573 288.216 176.613C288.216 178.653 289.875 180.306 291.921 180.306Z" fill="white"/>
<path d="M307.239 180.306C309.285 180.306 310.944 178.653 310.944 176.613C310.944 174.573 309.285 172.92 307.239 172.92C305.192 172.92 303.533 174.573 303.533 176.613C303.533 178.653 305.192 180.306 307.239 180.306Z" fill="white"/>
<path d="M322.551 180.306C324.597 180.306 326.256 178.653 326.256 176.613C326.256 174.573 324.597 172.92 322.551 172.92C320.505 172.92 318.846 174.573 318.846 176.613C318.846 178.653 320.505 180.306 322.551 180.306Z" fill="white"/>
<path d="M337.868 180.306C339.914 180.306 341.573 178.653 341.573 176.613C341.573 174.573 339.914 172.92 337.868 172.92C335.822 172.92 334.163 174.573 334.163 176.613C334.163 178.653 335.822 180.306 337.868 180.306Z" fill="white"/>
<path d="M353.181 180.306C355.227 180.306 356.886 178.653 356.886 176.613C356.886 174.573 355.227 172.92 353.181 172.92C351.134 172.92 349.475 174.573 349.475 176.613C349.475 178.653 351.134 180.306 353.181 180.306Z" fill="white"/>
<path d="M368.498 180.306C370.544 180.306 372.203 178.653 372.203 176.613C372.203 174.573 370.544 172.92 368.498 172.92C366.451 172.92 364.792 174.573 364.792 176.613C364.792 178.653 366.451 180.306 368.498 180.306Z" fill="white"/>
<path d="M384.956 173.095C384.397 175.371 383.824 177.764 383.237 180.256C382.321 180.105 381.495 179.617 380.923 178.888C380.351 178.159 380.074 177.242 380.148 176.319C380.222 175.397 380.64 174.535 381.321 173.906C382.002 173.276 382.895 172.924 383.824 172.92C384.208 172.92 384.59 172.979 384.956 173.095Z" fill="white"/>
<path d="M284.263 191.632C286.309 191.632 287.968 189.979 287.968 187.939C287.968 185.9 286.309 184.246 284.263 184.246C282.217 184.246 280.558 185.9 280.558 187.939C280.558 189.979 282.217 191.632 284.263 191.632Z" fill="white"/>
<path d="M268.95 191.632C270.997 191.632 272.656 189.979 272.656 187.939C272.656 185.9 270.997 184.246 268.95 184.246C266.904 184.246 265.245 185.9 265.245 187.939C265.245 189.979 266.904 191.632 268.95 191.632Z" fill="white"/>
<path d="M299.58 191.632C301.626 191.632 303.285 189.979 303.285 187.939C303.285 185.9 301.626 184.246 299.58 184.246C297.534 184.246 295.875 185.9 295.875 187.939C295.875 189.979 297.534 191.632 299.58 191.632Z" fill="white"/>
<path d="M314.897 191.632C316.943 191.632 318.602 189.979 318.602 187.939C318.602 185.9 316.943 184.246 314.897 184.246C312.851 184.246 311.192 185.9 311.192 187.939C311.192 189.979 312.851 191.632 314.897 191.632Z" fill="white"/>
<path d="M330.21 191.632C332.256 191.632 333.915 189.979 333.915 187.939C333.915 185.9 332.256 184.246 330.21 184.246C328.163 184.246 326.504 185.9 326.504 187.939C326.504 189.979 328.163 191.632 330.21 191.632Z" fill="white"/>
<path d="M345.527 191.632C347.573 191.632 349.232 189.979 349.232 187.939C349.232 185.9 347.573 184.246 345.527 184.246C343.48 184.246 341.821 185.9 341.821 187.939C341.821 189.979 343.48 191.632 345.527 191.632Z" fill="white"/>
<path d="M360.839 191.632C362.885 191.632 364.544 189.979 364.544 187.939C364.544 185.9 362.885 184.246 360.839 184.246C358.793 184.246 357.134 185.9 357.134 187.939C357.134 189.979 358.793 191.632 360.839 191.632Z" fill="white"/>
<path d="M376.156 191.632C378.202 191.632 379.861 189.979 379.861 187.939C379.861 185.9 378.202 184.246 376.156 184.246C374.11 184.246 372.451 185.9 372.451 187.939C372.451 189.979 374.11 191.632 376.156 191.632Z" fill="white"/>
<path d="M276.609 201.973C278.655 201.973 280.314 200.32 280.314 198.28C280.314 196.241 278.655 194.587 276.609 194.587C274.563 194.587 272.904 196.241 272.904 198.28C272.904 200.32 274.563 201.973 276.609 201.973Z" fill="white"/>
<path d="M268.95 169.969C270.997 169.969 272.656 168.316 272.656 166.276C272.656 164.237 270.997 162.583 268.95 162.583C266.904 162.583 265.245 164.237 265.245 166.276C265.245 168.316 266.904 169.969 268.95 169.969Z" fill="white"/>
<path d="M261.292 180.306C263.338 180.306 264.997 178.653 264.997 176.613C264.997 174.573 263.338 172.92 261.292 172.92C259.246 172.92 257.587 174.573 257.587 176.613C257.587 178.653 259.246 180.306 261.292 180.306Z" fill="white"/>
<path d="M253.633 191.632C255.68 191.632 257.339 189.979 257.339 187.939C257.339 185.9 255.68 184.246 253.633 184.246C251.587 184.246 249.928 185.9 249.928 187.939C249.928 189.979 251.587 191.632 253.633 191.632Z" fill="white"/>
<path d="M261.292 201.973C263.338 201.973 264.997 200.32 264.997 198.28C264.997 196.241 263.338 194.587 261.292 194.587C259.246 194.587 257.587 196.241 257.587 198.28C257.587 200.32 259.246 201.973 261.292 201.973Z" fill="white"/>
<path d="M257.343 166.272C257.343 167.251 256.953 168.191 256.258 168.883C255.563 169.576 254.621 169.965 253.638 169.965C253.444 169.967 253.251 169.95 253.06 169.915C254.067 167.815 255.105 165.692 256.156 163.573C256.531 163.916 256.83 164.333 257.034 164.798C257.239 165.263 257.344 165.765 257.343 166.272Z" fill="white"/>
<path d="M245.979 201.973C248.026 201.973 249.685 200.32 249.685 198.28C249.685 196.241 248.026 194.587 245.979 194.587C243.933 194.587 242.274 196.241 242.274 198.28C242.274 200.32 243.933 201.973 245.979 201.973Z" fill="white"/>
<path d="M291.921 201.973C293.968 201.973 295.627 200.32 295.627 198.28C295.627 196.241 293.968 194.587 291.921 194.587C289.875 194.587 288.216 196.241 288.216 198.28C288.216 200.32 289.875 201.973 291.921 201.973Z" fill="white"/>
<path d="M307.239 201.973C309.285 201.973 310.944 200.32 310.944 198.28C310.944 196.241 309.285 194.587 307.239 194.587C305.192 194.587 303.533 196.241 303.533 198.28C303.533 200.32 305.192 201.973 307.239 201.973Z" fill="white"/>
<path d="M322.551 201.973C324.597 201.973 326.256 200.32 326.256 198.28C326.256 196.241 324.597 194.587 322.551 194.587C320.505 194.587 318.846 196.241 318.846 198.28C318.846 200.32 320.505 201.973 322.551 201.973Z" fill="white"/>
<path d="M337.868 201.973C339.914 201.973 341.573 200.32 341.573 198.28C341.573 196.241 339.914 194.587 337.868 194.587C335.822 194.587 334.163 196.241 334.163 198.28C334.163 200.32 335.822 201.973 337.868 201.973Z" fill="white"/>
<path d="M353.181 201.973C355.227 201.973 356.886 200.32 356.886 198.28C356.886 196.241 355.227 194.587 353.181 194.587C351.134 194.587 349.475 196.241 349.475 198.28C349.475 200.32 351.134 201.973 353.181 201.973Z" fill="white"/>
<path d="M368.498 201.973C370.544 201.973 372.203 200.32 372.203 198.28C372.203 196.241 370.544 194.587 368.498 194.587C366.451 194.587 364.792 196.241 364.792 198.28C364.792 200.32 366.451 201.973 368.498 201.973Z" fill="white"/>
<path d="M284.263 212.805C286.309 212.805 287.968 211.151 287.968 209.112C287.968 207.072 286.309 205.419 284.263 205.419C282.217 205.419 280.558 207.072 280.558 209.112C280.558 211.151 282.217 212.805 284.263 212.805Z" fill="white"/>
<path d="M299.58 212.805C301.626 212.805 303.285 211.151 303.285 209.112C303.285 207.072 301.626 205.419 299.58 205.419C297.534 205.419 295.875 207.072 295.875 209.112C295.875 211.151 297.534 212.805 299.58 212.805Z" fill="white"/>
<path d="M314.897 212.805C316.943 212.805 318.602 211.151 318.602 209.112C318.602 207.072 316.943 205.419 314.897 205.419C312.851 205.419 311.192 207.072 311.192 209.112C311.192 211.151 312.851 212.805 314.897 212.805Z" fill="white"/>
<path d="M330.21 212.805C332.256 212.805 333.915 211.151 333.915 209.112C333.915 207.072 332.256 205.419 330.21 205.419C328.163 205.419 326.504 207.072 326.504 209.112C326.504 211.151 328.163 212.805 330.21 212.805Z" fill="white"/>
<path d="M345.527 212.805C347.573 212.805 349.232 211.151 349.232 209.112C349.232 207.072 347.573 205.419 345.527 205.419C343.48 205.419 341.821 207.072 341.821 209.112C341.821 211.151 343.48 212.805 345.527 212.805Z" fill="white"/>
<path d="M360.839 212.805C362.885 212.805 364.544 211.151 364.544 209.112C364.544 207.072 362.885 205.419 360.839 205.419C358.793 205.419 357.134 207.072 357.134 209.112C357.134 211.151 358.793 212.805 360.839 212.805Z" fill="white"/>
<path d="M377.56 205.693C377.057 208.059 376.558 210.428 376.061 212.8C375.518 212.787 374.984 212.655 374.497 212.413C374.01 212.172 373.583 211.826 373.245 211.401C372.908 210.976 372.668 210.483 372.543 209.955C372.419 209.428 372.412 208.879 372.524 208.349C372.636 207.818 372.863 207.319 373.19 206.886C373.518 206.453 373.936 206.097 374.417 205.844C374.898 205.591 375.428 205.446 375.971 205.42C376.515 205.393 377.057 205.487 377.56 205.693Z" fill="white"/>
<path d="M276.609 215.76C277.557 215.757 278.469 216.12 279.154 216.772C277.701 218.796 276.248 220.762 274.795 222.669C274.081 222.269 273.519 221.646 273.199 220.895C272.878 220.144 272.816 219.308 273.022 218.518C273.228 217.728 273.691 217.029 274.339 216.529C274.986 216.029 275.781 215.757 276.6 215.755L276.609 215.76Z" fill="white"/>
<path d="M291.921 223.146C293.968 223.146 295.627 221.492 295.627 219.453C295.627 217.413 293.968 215.76 291.921 215.76C289.875 215.76 288.216 217.413 288.216 219.453C288.216 221.492 289.875 223.146 291.921 223.146Z" fill="white"/>
<path d="M307.239 223.146C309.285 223.146 310.944 221.492 310.944 219.453C310.944 217.413 309.285 215.76 307.239 215.76C305.192 215.76 303.533 217.413 303.533 219.453C303.533 221.492 305.192 223.146 307.239 223.146Z" fill="white"/>
<path d="M322.551 223.146C324.597 223.146 326.256 221.492 326.256 219.453C326.256 217.413 324.597 215.76 322.551 215.76C320.505 215.76 318.846 217.413 318.846 219.453C318.846 221.492 320.505 223.146 322.551 223.146Z" fill="white"/>
<path d="M337.868 223.146C339.914 223.146 341.573 221.492 341.573 219.453C341.573 217.413 339.914 215.76 337.868 215.76C335.822 215.76 334.163 217.413 334.163 219.453C334.163 221.492 335.822 223.146 337.868 223.146Z" fill="white"/>
<path d="M353.181 223.146C355.227 223.146 356.886 221.492 356.886 219.453C356.886 217.413 355.227 215.76 353.181 215.76C351.134 215.76 349.475 217.413 349.475 219.453C349.475 221.492 351.134 223.146 353.181 223.146Z" fill="white"/>
<path d="M368.498 223.146C370.544 223.146 372.203 221.492 372.203 219.453C372.203 217.413 370.544 215.76 368.498 215.76C366.451 215.76 364.792 217.413 364.792 219.453C364.792 221.492 366.451 223.146 368.498 223.146Z" fill="white"/>
<path d="M285.251 234.472C287.298 234.472 288.957 232.818 288.957 230.779C288.957 228.739 287.298 227.086 285.251 227.086C283.205 227.086 281.546 228.739 281.546 230.779C281.546 232.818 283.205 234.472 285.251 234.472Z" fill="white"/>
<path d="M270.887 227.635C269.289 229.596 267.7 231.454 266.139 233.185C265.676 232.648 265.377 231.989 265.279 231.287C265.182 230.585 265.288 229.87 265.587 229.227C265.886 228.584 266.364 228.04 266.964 227.66C267.565 227.281 268.262 227.081 268.973 227.086C269.65 227.087 270.313 227.277 270.887 227.635Z" fill="white"/>
<path d="M299.58 234.472C301.626 234.472 303.285 232.818 303.285 230.779C303.285 228.739 301.626 227.086 299.58 227.086C297.534 227.086 295.875 228.739 295.875 230.779C295.875 232.818 297.534 234.472 299.58 234.472Z" fill="white"/>
<path d="M314.897 234.472C316.943 234.472 318.602 232.818 318.602 230.779C318.602 228.739 316.943 227.086 314.897 227.086C312.851 227.086 311.192 228.739 311.192 230.779C311.192 232.818 312.851 234.472 314.897 234.472Z" fill="white"/>
<path d="M330.21 234.472C332.256 234.472 333.915 232.818 333.915 230.779C333.915 228.739 332.256 227.086 330.21 227.086C328.163 227.086 326.504 228.739 326.504 230.779C326.504 232.818 328.163 234.472 330.21 234.472Z" fill="white"/>
<path d="M345.527 234.472C347.573 234.472 349.232 232.818 349.232 230.779C349.232 228.739 347.573 227.086 345.527 227.086C343.48 227.086 341.821 228.739 341.821 230.779C341.821 232.818 343.48 234.472 345.527 234.472Z" fill="white"/>
<path d="M360.839 234.472C362.885 234.472 364.544 232.818 364.544 230.779C364.544 228.739 362.885 227.086 360.839 227.086C358.793 227.086 357.134 228.739 357.134 230.779C357.134 232.818 358.793 234.472 360.839 234.472Z" fill="white"/>
<path d="M268.95 212.805C270.997 212.805 272.656 211.151 272.656 209.112C272.656 207.072 270.997 205.419 268.95 205.419C266.904 205.419 265.245 207.072 265.245 209.112C265.245 211.151 266.904 212.805 268.95 212.805Z" fill="white"/>
<path d="M261.292 223.146C263.338 223.146 264.997 221.492 264.997 219.453C264.997 217.413 263.338 215.76 261.292 215.76C259.246 215.76 257.587 217.413 257.587 219.453C257.587 221.492 259.246 223.146 261.292 223.146Z" fill="white"/>
<path d="M253.633 234.472C255.68 234.472 257.339 232.818 257.339 230.779C257.339 228.739 255.68 227.086 253.633 227.086C251.587 227.086 249.928 228.739 249.928 230.779C249.928 232.818 251.587 234.472 253.633 234.472Z" fill="white"/>
<path d="M245.979 244.813C248.026 244.813 249.685 243.16 249.685 241.12C249.685 239.08 248.026 237.427 245.979 237.427C243.933 237.427 242.274 239.08 242.274 241.12C242.274 243.16 243.933 244.813 245.979 244.813Z" fill="white"/>
<path d="M253.633 212.805C255.68 212.805 257.339 211.151 257.339 209.112C257.339 207.072 255.68 205.419 253.633 205.419C251.587 205.419 249.928 207.072 249.928 209.112C249.928 211.151 251.587 212.805 253.633 212.805Z" fill="white"/>
<path d="M245.979 223.146C248.026 223.146 249.685 221.492 249.685 219.453C249.685 217.413 248.026 215.76 245.979 215.76C243.933 215.76 242.274 217.413 242.274 219.453C242.274 221.492 243.933 223.146 245.979 223.146Z" fill="white"/>
<path d="M238.321 234.472C240.367 234.472 242.026 232.818 242.026 230.779C242.026 228.739 240.367 227.086 238.321 227.086C236.275 227.086 234.616 228.739 234.616 230.779C234.616 232.818 236.275 234.472 238.321 234.472Z" fill="white"/>
<path d="M230.662 244.813C232.709 244.813 234.368 243.16 234.368 241.12C234.368 239.08 232.709 237.427 230.662 237.427C228.616 237.427 226.957 239.08 226.957 241.12C226.957 243.16 228.616 244.813 230.662 244.813Z" fill="white"/>
<path d="M238.321 212.805C240.367 212.805 242.026 211.151 242.026 209.112C242.026 207.072 240.367 205.419 238.321 205.419C236.275 205.419 234.616 207.072 234.616 209.112C234.616 211.151 236.275 212.805 238.321 212.805Z" fill="white"/>
<path d="M230.662 223.146C232.709 223.146 234.368 221.492 234.368 219.453C234.368 217.413 232.709 215.76 230.662 215.76C228.616 215.76 226.957 217.413 226.957 219.453C226.957 221.492 228.616 223.146 230.662 223.146Z" fill="white"/>
<path d="M223.004 234.472C225.05 234.472 226.709 232.818 226.709 230.779C226.709 228.739 225.05 227.086 223.004 227.086C220.958 227.086 219.299 228.739 219.299 230.779C219.299 232.818 220.958 234.472 223.004 234.472Z" fill="white"/>
<path d="M219.055 241.098C219.056 241.71 218.904 242.313 218.613 242.851C218.321 243.39 217.899 243.848 217.385 244.183C215.684 243.864 213.973 243.518 212.272 243.158C211.946 242.679 211.737 242.131 211.662 241.557C211.587 240.983 211.649 240.4 211.842 239.855C212.035 239.309 212.354 238.816 212.773 238.416C213.192 238.015 213.699 237.719 214.254 237.55C214.81 237.381 215.397 237.344 215.969 237.443C216.541 237.542 217.081 237.773 217.547 238.118C218.013 238.463 218.391 238.913 218.651 239.43C218.91 239.948 219.044 240.519 219.042 241.098H219.055Z" fill="white"/>
<path d="M226.714 209.112C226.714 210.091 226.323 211.03 225.628 211.723C224.934 212.416 223.991 212.805 223.008 212.805C222.026 212.805 221.083 212.416 220.389 211.723C219.694 211.03 219.303 210.091 219.303 209.112C219.302 208.685 219.377 208.262 219.524 207.861L226.1 207.114C226.495 207.707 226.708 208.401 226.714 209.112Z" fill="white"/>
<path d="M215.345 223.146C217.392 223.146 219.051 221.492 219.051 219.453C219.051 217.413 217.392 215.76 215.345 215.76C213.299 215.76 211.64 217.413 211.64 219.453C211.64 221.492 213.299 223.146 215.345 223.146Z" fill="white"/>
<path d="M207.691 234.472C209.738 234.472 211.397 232.818 211.397 230.779C211.397 228.739 209.738 227.086 207.691 227.086C205.645 227.086 203.986 228.739 203.986 230.779C203.986 232.818 205.645 234.472 207.691 234.472Z" fill="white"/>
<path d="M203.738 241.098C203.74 241.141 203.74 241.184 203.738 241.228C201.373 240.661 199.027 240.067 196.725 239.456C197.097 238.712 197.71 238.115 198.465 237.761C199.219 237.408 200.072 237.319 200.884 237.509C201.695 237.699 202.419 238.157 202.937 238.808C203.455 239.46 203.737 240.266 203.738 241.098Z" fill="white"/>
<path d="M211.397 209.112C211.389 210.047 211.025 210.944 210.38 211.623C209.734 212.301 208.854 212.71 207.918 212.767C206.981 212.824 206.058 212.525 205.334 211.93C204.61 211.335 204.14 210.489 204.018 209.561L211.379 208.761C211.392 208.877 211.398 208.994 211.397 209.112Z" fill="white"/>
<path d="M200.033 223.146C202.079 223.146 203.738 221.492 203.738 219.453C203.738 217.413 202.079 215.76 200.033 215.76C197.987 215.76 196.328 217.413 196.328 219.453C196.328 221.492 197.987 223.146 200.033 223.146Z" fill="white"/>
<path d="M192.374 234.472C194.421 234.472 196.08 232.818 196.08 230.779C196.08 228.739 194.421 227.086 192.374 227.086C190.328 227.086 188.669 228.739 188.669 230.779C188.669 232.818 190.328 234.472 192.374 234.472Z" fill="white"/>
<path d="M195.836 210.43C195.591 211.069 195.173 211.627 194.629 212.043C194.084 212.459 193.434 212.716 192.752 212.785C192.069 212.854 191.381 212.732 190.764 212.434C190.146 212.136 189.624 211.672 189.256 211.095C191.422 210.879 193.606 210.659 195.836 210.43Z" fill="white"/>
<path d="M184.716 223.146C186.762 223.146 188.421 221.492 188.421 219.453C188.421 217.413 186.762 215.76 184.716 215.76C182.67 215.76 181.011 217.413 181.011 219.453C181.011 221.492 182.67 223.146 184.716 223.146Z" fill="white"/>
<path d="M180.767 230.779C180.767 231.489 180.561 232.184 180.175 232.78C179.788 233.376 179.237 233.848 178.587 234.139C176.917 233.595 175.315 233.055 173.794 232.529C173.529 232.034 173.38 231.485 173.359 230.925C173.338 230.364 173.446 229.806 173.674 229.293C173.901 228.78 174.243 228.326 174.674 227.964C175.104 227.602 175.611 227.343 176.157 227.206C176.703 227.069 177.273 227.058 177.824 227.173C178.375 227.289 178.892 227.528 179.336 227.872C179.781 228.217 180.14 228.657 180.388 229.161C180.636 229.665 180.766 230.218 180.767 230.779Z" fill="white"/>
<path d="M169.403 223.146C171.45 223.146 173.109 221.492 173.109 219.453C173.109 217.413 171.45 215.76 169.403 215.76C167.357 215.76 165.698 217.413 165.698 219.453C165.698 221.492 167.357 223.146 169.403 223.146Z" fill="white"/>
<path d="M291.921 244.813C293.968 244.813 295.627 243.16 295.627 241.12C295.627 239.08 293.968 237.427 291.921 237.427C289.875 237.427 288.216 239.08 288.216 241.12C288.216 243.16 289.875 244.813 291.921 244.813Z" fill="white"/>
<path d="M307.239 244.813C309.285 244.813 310.944 243.16 310.944 241.12C310.944 239.08 309.285 237.427 307.239 237.427C305.192 237.427 303.533 239.08 303.533 241.12C303.533 243.16 305.192 244.813 307.239 244.813Z" fill="white"/>
<path d="M322.551 244.813C324.597 244.813 326.256 243.16 326.256 241.12C326.256 239.08 324.597 237.427 322.551 237.427C320.505 237.427 318.846 239.08 318.846 241.12C318.846 243.16 320.505 244.813 322.551 244.813Z" fill="white"/>
<path d="M337.868 244.813C339.914 244.813 341.573 243.16 341.573 241.12C341.573 239.08 339.914 237.427 337.868 237.427C335.822 237.427 334.163 239.08 334.163 241.12C334.163 243.16 335.822 244.813 337.868 244.813Z" fill="white"/>
<path d="M353.181 244.813C355.227 244.813 356.886 243.16 356.886 241.12C356.886 239.08 355.227 237.427 353.181 237.427C351.134 237.427 349.475 239.08 349.475 241.12C349.475 243.16 351.134 244.813 353.181 244.813Z" fill="white"/>
<path d="M370.921 238.327C370.506 240.486 370.104 242.582 369.725 244.597C369.332 244.74 368.916 244.813 368.498 244.813C367.898 244.815 367.307 244.672 366.774 244.396C366.242 244.121 365.785 243.72 365.442 243.23C365.099 242.74 364.881 242.174 364.805 241.581C364.73 240.988 364.8 240.385 365.009 239.825C365.218 239.265 365.561 238.764 366.007 238.364C366.453 237.965 366.99 237.68 367.571 237.532C368.152 237.385 368.761 237.38 369.344 237.519C369.928 237.657 370.469 237.934 370.921 238.327Z" fill="white"/>
<path d="M287.973 251.951C287.973 252.848 287.646 253.714 287.052 254.387C286.458 255.06 285.638 255.495 284.746 255.608C284.38 253.278 284.006 250.831 283.631 248.317C283.841 248.277 284.054 248.257 284.268 248.259C285.25 248.26 286.192 248.649 286.886 249.341C287.581 250.034 287.971 250.972 287.973 251.951Z" fill="white"/>
<path d="M299.58 255.644C301.626 255.644 303.285 253.991 303.285 251.951C303.285 249.912 301.626 248.258 299.58 248.258C297.534 248.258 295.875 249.912 295.875 251.951C295.875 253.991 297.534 255.644 299.58 255.644Z" fill="white"/>
<path d="M314.897 255.644C316.943 255.644 318.602 253.991 318.602 251.951C318.602 249.912 316.943 248.258 314.897 248.258C312.851 248.258 311.192 249.912 311.192 251.951C311.192 253.991 312.851 255.644 314.897 255.644Z" fill="white"/>
<path d="M330.21 255.644C332.256 255.644 333.915 253.991 333.915 251.951C333.915 249.912 332.256 248.258 330.21 248.258C328.163 248.258 326.504 249.912 326.504 251.951C326.504 253.991 328.163 255.644 330.21 255.644Z" fill="white"/>
<path d="M345.527 255.644C347.573 255.644 349.232 253.991 349.232 251.951C349.232 249.912 347.573 248.258 345.527 248.258C343.48 248.258 341.821 249.912 341.821 251.951C341.821 253.991 343.48 255.644 345.527 255.644Z" fill="white"/>
<path d="M360.839 255.644C362.885 255.644 364.544 253.991 364.544 251.951C364.544 249.912 362.885 248.258 360.839 248.258C358.793 248.258 357.134 249.912 357.134 251.951C357.134 253.991 358.793 255.644 360.839 255.644Z" fill="white"/>
<path d="M291.921 265.985C293.968 265.985 295.627 264.332 295.627 262.293C295.627 260.253 293.968 258.6 291.921 258.6C289.875 258.6 288.216 260.253 288.216 262.293C288.216 264.332 289.875 265.985 291.921 265.985Z" fill="white"/>
<path d="M307.239 265.985C309.285 265.985 310.944 264.332 310.944 262.293C310.944 260.253 309.285 258.6 307.239 258.6C305.192 258.6 303.533 260.253 303.533 262.293C303.533 264.332 305.192 265.985 307.239 265.985Z" fill="white"/>
<path d="M322.551 265.985C324.597 265.985 326.256 264.332 326.256 262.293C326.256 260.253 324.597 258.6 322.551 258.6C320.505 258.6 318.846 260.253 318.846 262.293C318.846 264.332 320.505 265.985 322.551 265.985Z" fill="white"/>
<path d="M337.868 265.985C339.914 265.985 341.573 264.332 341.573 262.293C341.573 260.253 339.914 258.6 337.868 258.6C335.822 258.6 334.163 260.253 334.163 262.293C334.163 264.332 335.822 265.985 337.868 265.985Z" fill="white"/>
<path d="M353.181 265.985C355.227 265.985 356.886 264.332 356.886 262.293C356.886 260.253 355.227 258.6 353.181 258.6C351.134 258.6 349.475 260.253 349.475 262.293C349.475 264.332 351.134 265.985 353.181 265.985Z" fill="white"/>
<path d="M367.162 258.847C366.747 261.325 366.408 263.458 366.173 265.144C365.673 264.737 365.288 264.206 365.057 263.604C364.826 263.002 364.757 262.35 364.856 261.713C364.956 261.077 365.222 260.477 365.626 259.974C366.031 259.471 366.56 259.083 367.162 258.847Z" fill="white"/>
<path d="M303.272 273.614C303.272 274.326 303.066 275.024 302.677 275.621C302.289 276.219 301.735 276.692 301.083 276.983C299.77 276.844 298.492 276.673 297.247 276.493C296.759 276.102 296.379 275.593 296.142 275.016C295.905 274.439 295.818 273.811 295.891 273.191C295.963 272.571 296.191 271.98 296.555 271.472C296.919 270.964 297.406 270.556 297.97 270.286C298.535 270.017 299.159 269.894 299.784 269.93C300.409 269.966 301.014 270.159 301.544 270.491C302.074 270.824 302.511 271.284 302.814 271.83C303.117 272.377 303.276 272.99 303.276 273.614H303.272Z" fill="white"/>
<path d="M314.897 277.312C316.943 277.312 318.602 275.658 318.602 273.619C318.602 271.579 316.943 269.926 314.897 269.926C312.851 269.926 311.192 271.579 311.192 273.619C311.192 275.658 312.851 277.312 314.897 277.312Z" fill="white"/>
<path d="M330.21 277.312C332.256 277.312 333.915 275.658 333.915 273.619C333.915 271.579 332.256 269.926 330.21 269.926C328.163 269.926 326.504 271.579 326.504 273.619C326.504 275.658 328.163 277.312 330.21 277.312Z" fill="white"/>
<path d="M349.232 273.614C349.232 274.385 348.99 275.137 348.541 275.764C346.844 276.034 345.066 276.286 343.22 276.506C342.731 276.117 342.348 275.61 342.108 275.033C341.868 274.456 341.779 273.828 341.849 273.207C341.919 272.586 342.146 271.994 342.508 271.484C342.871 270.974 343.357 270.565 343.921 270.293C344.486 270.022 345.11 269.898 345.736 269.932C346.361 269.967 346.968 270.159 347.499 270.491C348.03 270.822 348.468 271.283 348.772 271.829C349.075 272.375 349.235 272.99 349.236 273.614H349.232Z" fill="white"/>
<path d="M363.818 271.419C362.328 272.35 360.04 273.218 357.157 273.992C357.15 273.866 357.15 273.74 357.157 273.614C357.155 272.837 357.4 272.079 357.857 271.449C358.313 270.819 358.958 270.348 359.698 270.105C360.439 269.862 361.238 269.858 361.981 270.094C362.724 270.33 363.373 270.794 363.836 271.419H363.818Z" fill="white"/>
<path d="M280.075 218.099C293.275 200.615 301.151 183.522 308.814 168.426" stroke="#00A3FF" stroke-width="4" stroke-miterlimit="10"/>
<path d="M132.068 211.936C136.454 210.996 151.884 211.077 159.782 213.214L158.288 226.258C158.288 226.258 150.86 229.884 145.954 227.873C141.048 225.863 137.348 221.904 133.855 222.988C130.362 224.072 126.065 226.816 123.967 226.317C121.466 225.76 119.081 224.775 116.918 223.407C117.752 221.877 126.661 213.605 132.068 211.936Z" fill="#FFCFC9"/>
<path d="M319.857 82.8503C321.08 87.7352 325.981 108.908 325.981 112.164C325.981 115.421 359.697 111.652 366.232 105.952C366.232 105.952 352.941 91.1898 349.674 69.0052L319.857 82.8503Z" fill="#FFCFC9"/>
<path d="M345.536 71.2767C345.536 71.2767 335.251 92.6606 313.882 90.9559C313.167 90.9002 312.478 90.6689 311.876 90.2827C311.273 89.8965 310.776 89.3674 310.429 88.7428C307.496 83.4351 299.715 68.5014 300 59.6357C300.352 48.7458 305 28.5539 305 28.5539C305 28.5539 331.022 23.1832 345.468 47.2299C353.56 60.7242 345.536 71.2767 345.536 71.2767Z" fill="#FFCFC9"/>
<path d="M326.753 51.9619H288.957" stroke="#00A3FF" stroke-width="4" stroke-miterlimit="10"/>
<path d="M292.96 66.1894C295.006 66.1894 296.665 61.6058 296.665 55.9517C296.665 50.2976 295.006 45.7141 292.96 45.7141C290.913 45.7141 289.254 50.2976 289.254 55.9517C289.254 61.6058 290.913 66.1894 292.96 66.1894Z" stroke="#00A3FF" stroke-width="4" stroke-miterlimit="10"/>
<path d="M394.853 91.9814C394.853 91.9814 364.865 100.622 324.483 103.254C324.483 103.254 310.425 88.7428 326.622 70.8359C335.882 60.5982 324.532 47.6213 324.532 47.6213C311.557 43.573 296.141 43.1232 296.141 43.1232C290.992 35.5799 290.852 24.8699 305.167 14.2949C319.997 3.35558 349.056 -7.57027 366.205 9.75186C376.03 19.6477 369.364 39.4842 381.937 45.5027C421.511 64.3991 394.853 91.9814 394.853 91.9814Z" fill="#081C7E"/>
<path d="M309.639 14.2769C324.483 3.33759 353.528 -7.58826 370.677 9.73387C380.502 19.6297 374.82 42.9118 387.375 48.9302" stroke="#081C7E" stroke-width="3" stroke-miterlimit="10"/>
<path d="M292.689 43.1052C287.539 35.5619 289.697 22.6344 305.691 14.7672" stroke="#081C7E" stroke-width="3" stroke-miterlimit="10"/>
<path d="M317.713 103.191C317.713 103.191 305.627 87.7892 322.975 70.9843C332.904 61.3764 324.397 45.7141 324.397 45.7141" stroke="#081C7E" stroke-width="3" stroke-miterlimit="10"/>
<path d="M447.294 199.328C444.898 208.324 412.815 266.35 409.634 348.282C409.199 359.671 404.355 370.449 396.119 378.355C387.883 386.261 376.895 390.68 365.461 390.686H220.716C215.793 390.686 212.444 392.656 210.337 395.854C210.152 396.12 209.887 396.321 209.58 396.427C209.273 396.532 208.94 396.537 208.63 396.442C208.32 396.346 208.049 396.154 207.856 395.894C207.662 395.634 207.558 395.319 207.557 394.995V387.533C207.557 377.637 215.63 367.795 225.577 367.822L269.768 367.858C289.553 367.917 301.264 354.121 302.013 334.415C304.775 261.636 328.26 215.571 338.902 200.655C340.793 198.01 343.291 195.855 346.188 194.368C349.085 192.881 352.296 192.107 355.555 192.109H443.625C447.344 192.113 448.251 195.734 447.294 199.328Z" fill="white" stroke="#00A3FF" stroke-width="6" stroke-miterlimit="10" stroke-linecap="round"/>
<path d="M446.058 198.789H359.959C356.866 198.784 353.816 199.516 351.065 200.925C348.313 202.333 345.939 204.377 344.141 206.885C333.996 221.108 312.365 278.976 309.716 344.482C309.388 352.437 305.985 359.958 300.219 365.469C294.454 370.981 286.773 374.056 278.784 374.052H224.033C219.662 374.052 215.47 375.783 212.379 378.863C209.288 381.944 207.552 386.122 207.552 390.479" stroke="#00A3FF" stroke-width="6" stroke-miterlimit="10" stroke-linecap="round"/>
<path d="M313.584 420.198H297.788V565.09H313.584V420.198Z" fill="#F0E1D4" stroke="#00A3FF" stroke-width="6" stroke-miterlimit="10" stroke-linecap="round"/>
<path d="M271.875 580.64C271.875 572.152 278.238 565.27 286.086 565.27H325.349C333.197 565.27 339.565 572.152 339.565 580.64" stroke="#00A3FF" stroke-width="6" stroke-miterlimit="10" stroke-linecap="round"/>
<path d="M338.667 598.651C344.783 598.651 349.742 593.709 349.742 587.612C349.742 581.516 344.783 576.574 338.667 576.574C332.55 576.574 327.592 581.516 327.592 587.612C327.592 593.709 332.55 598.651 338.667 598.651Z" fill="white" stroke="#00A3FF" stroke-width="6" stroke-miterlimit="10" stroke-linecap="round"/>
<path d="M273.229 598.651C279.345 598.651 284.304 593.709 284.304 587.612C284.304 581.516 279.345 576.574 273.229 576.574C267.112 576.574 262.154 581.516 262.154 587.612C262.154 593.709 267.112 598.651 273.229 598.651Z" fill="white" stroke="#00A3FF" stroke-width="6" stroke-miterlimit="10" stroke-linecap="round"/>
<path d="M288.379 390.947H322.98V412.574C322.98 414.203 322.658 415.817 322.032 417.323C321.406 418.829 320.489 420.197 319.333 421.349C318.177 422.501 316.804 423.416 315.293 424.039C313.783 424.663 312.164 424.984 310.529 424.984H300.839C299.203 424.985 297.582 424.665 296.07 424.041C294.558 423.418 293.185 422.504 292.027 421.351C290.87 420.198 289.952 418.829 289.326 417.322C288.7 415.815 288.378 414.2 288.379 412.569V390.947Z" fill="white" stroke="#00A3FF" stroke-width="6" stroke-miterlimit="10" stroke-linecap="round"/>
<path d="M241.606 580.559C241.606 576.503 243.223 572.613 246.101 569.745C248.978 566.877 252.881 565.266 256.951 565.266H359.395C363.464 565.266 367.367 566.877 370.245 569.745C373.122 572.613 374.739 576.503 374.739 580.559" stroke="#00A3FF" stroke-width="6" stroke-miterlimit="10" stroke-linecap="round"/>
<path d="M238.479 598.651C244.595 598.651 249.554 593.709 249.554 587.612C249.554 581.516 244.595 576.574 238.479 576.574C232.362 576.574 227.404 581.516 227.404 587.612C227.404 593.709 232.362 598.651 238.479 598.651Z" fill="white" stroke="#00A3FF" stroke-width="6" stroke-miterlimit="10" stroke-linecap="round"/>
<path d="M376.576 598.651C382.692 598.651 387.651 593.709 387.651 587.612C387.651 581.516 382.692 576.574 376.576 576.574C370.459 576.574 365.501 581.516 365.501 587.612C365.501 593.709 370.459 598.651 376.576 598.651Z" fill="white" stroke="#00A3FF" stroke-width="6" stroke-miterlimit="10" stroke-linecap="round"/>
</g>
</g>
<defs>
<filter id="filter0_d" x="-4.65315" y="-0.824799" width="459.301" height="610.475" filterUnits="userSpaceOnUse" color-interpolation-filters="sRGB">
<feFlood flood-opacity="0" result="BackgroundImageFix"/>
<feColorMatrix in="SourceAlpha" type="matrix" values="0 0 0 0 0 0 0 0 0 0 0 0 0 0 0 0 0 0 127 0"/>
<feOffset dy="4"/>
<feGaussianBlur stdDeviation="2"/>
<feColorMatrix type="matrix" values="0 0 0 0 0 0 0 0 0 0 0 0 0 0 0 0 0 0 0.25 0"/>
<feBlend mode="normal" in2="BackgroundImageFix" result="effect1_dropShadow"/>
<feBlend mode="normal" in="SourceGraphic" in2="effect1_dropShadow" result="shape"/>
</filter>
<clipPath id="clip0">
<rect width="449" height="600" fill="white"/>
</clipPath>
</defs>
</svg>
