<svg width="512" height="600" viewBox="0 0 512 600" fill="none" xmlns="http://www.w3.org/2000/svg">
<g clip-path="url(#clip0)">
<path d="M412.391 413.261H479.601C482.397 413.259 485.109 412.306 487.292 410.559C489.474 408.812 490.997 406.375 491.61 403.648L506.256 338.387C506.66 336.588 506.653 334.722 506.237 332.926C505.822 331.13 505.008 329.45 503.855 328.011C502.702 326.572 501.241 325.411 499.579 324.613C497.917 323.815 496.096 323.4 494.252 323.401" stroke="#00A3FF" stroke-width="5" stroke-miterlimit="10" stroke-linecap="round"/>
<path d="M288.425 413.261H355.635C358.431 413.259 361.143 412.306 363.326 410.559C365.508 408.812 367.031 406.375 367.644 403.648L382.29 338.387C382.693 336.588 382.687 334.722 382.271 332.926C381.855 331.13 381.041 329.45 379.889 328.011C378.736 326.572 377.275 325.411 375.612 324.613C373.95 323.815 372.13 323.4 370.286 323.401" stroke="#00A3FF" stroke-width="5" stroke-miterlimit="10" stroke-linecap="round"/>
<path d="M361.986 346.425H476.045C480.196 346.425 484.225 345.021 487.476 342.441C490.727 339.86 493.009 336.256 493.951 332.214L510.387 261.647C510.923 259.347 510.932 256.956 510.413 254.652C509.895 252.348 508.863 250.191 507.394 248.341C505.925 246.492 504.057 244.998 501.93 243.971C499.803 242.945 497.471 242.411 495.109 242.412H381.046C376.895 242.412 372.867 243.816 369.616 246.397C366.366 248.977 364.085 252.581 363.145 256.623L346.708 327.205C346.176 329.503 346.17 331.893 346.69 334.194C347.209 336.496 348.242 338.651 349.71 340.498C351.179 342.346 353.045 343.838 355.171 344.864C357.296 345.891 359.626 346.424 361.986 346.425Z" fill="white" stroke="#00A3FF" stroke-width="5" stroke-miterlimit="10" stroke-linecap="round"/>
<path d="M284.979 396.982H467.908C472.405 396.982 476.05 400.626 476.05 405.121C476.05 409.617 472.405 413.261 467.908 413.261H284.979C280.482 413.261 276.837 409.617 276.837 405.121C276.837 400.626 280.482 396.982 284.979 396.982Z" fill="#EAEEFF" stroke="#00A3FF" stroke-width="5" stroke-miterlimit="10" stroke-linecap="round"/>
<path d="M489.653 598.301L466.941 429.098C466.506 420.223 459.508 413.26 451.022 413.26H411.774C403.288 413.26 396.29 420.223 395.85 429.098L373.139 598.301" stroke="#00A3FF" stroke-width="5" stroke-miterlimit="10" stroke-linecap="round"/>
<path d="M345.411 413.26H307.302C299.065 413.26 292.269 420.223 291.843 429.098L269.371 598.301" stroke="#00A3FF" stroke-width="5" stroke-miterlimit="10" stroke-linecap="round"/>
<path d="M165.579 245.593C163.104 247.225 157.365 259.378 157.26 260.842C157.155 262.307 163.746 273.187 163.746 273.187C163.746 273.187 166.364 273.245 166.862 267.259C167.469 260.173 170.581 257.488 175.089 256.479C176.975 256.058 180.44 257.493 180.684 260.268C180.929 263.043 173.759 264.886 172.318 266.57C170.131 269.115 171.361 272.704 171.361 272.79C171.361 272.79 182.427 269.441 184.552 268.819C186.466 268.249 195.015 260.479 200.347 252.775C202.331 254.228 204.409 255.547 206.569 256.723C219.971 263.929 265.92 280.69 289.722 276.891C313.625 273.063 294.532 196.983 294.532 196.983C259.918 198.582 245.425 194.175 242.783 193.242L248.158 228.411C233.612 227.98 197.82 233.908 197.8 233.913C187.744 235.234 169.135 243.253 165.579 245.593Z" fill="#F1921B"/>
<path d="M294.7 196.95H294.494C259.879 198.549 245.386 194.142 242.744 193.209L244.013 201.821C244.013 201.821 269.691 213.908 298.251 212.827L294.7 196.95Z" fill="#EB7200"/>
<path d="M291.23 293.117C283.007 292.514 268.102 196.855 268.102 196.855C249.747 197.123 227.552 188.562 227.552 188.562C227.552 188.562 242.73 138.838 247.961 128.584C253.193 118.33 290.746 100.602 295.179 99.3197L368.381 82.5726C368.381 82.5726 430.867 98.09 450.572 114.014C470.277 129.938 485.675 197.108 485.675 197.108C449.486 211.697 411.965 209.549 411.965 209.549L424.721 286.409C428.852 305.07 442.048 364.316 418.781 393.083C418.781 393.083 400.062 301.108 291.23 293.117Z" fill="#EAEEFF"/>
<path d="M339.337 107.181L361.23 120.536L388.991 88.2667L368.151 75.7877C367.544 75.4261 366.871 75.1887 366.171 75.0893C365.472 74.9898 364.759 75.0303 364.075 75.2083C363.391 75.3864 362.749 75.6985 362.187 76.1265C361.625 76.5545 361.153 77.09 360.799 77.7017L339.337 107.181Z" fill="#DBDAFF"/>
<path d="M306.044 110.244L290.636 119.335L291.378 100.856L295.179 99.3198C295.179 99.3198 301.947 103.856 306.044 110.244Z" fill="#DBDAFF"/>
<path d="M411.965 209.539C408.998 199.821 406.03 176.347 406.03 176.347" stroke="#C7BFFF" stroke-width="5" stroke-linejoin="round"/>
<path d="M361.23 120.536L339.749 107.995C339.749 107.995 319.139 132.508 318.565 136.795C317.99 141.082 316.909 184.802 316.909 184.802H306.044" stroke="#C7BFFF" stroke-width="5" stroke-linejoin="round"/>
<path d="M291.043 119.316L305.637 111.057C305.637 111.057 318.871 131.986 318.56 136.795" stroke="#C7BFFF" stroke-width="5" stroke-linejoin="round"/>
<path d="M409.634 199.884C409.634 199.884 455.89 201.257 483.076 186.778" stroke="#C7BFFF" stroke-width="5" stroke-linejoin="round"/>
<path d="M271.247 275.609C271.247 277.805 293.81 277.006 296.988 277.006C300.166 277.006 320.072 277.762 324.749 277.006C350.169 279.097 463.553 287.337 476.739 269.015C492.003 247.799 478.366 199.807 478.366 199.807C444.12 211.697 411.965 209.535 411.965 209.535L414.775 227.76C387.593 231.11 338.543 248.335 321.867 254.369C318.292 253.225 304.679 249.106 297.787 250.675C289.813 252.469 280.236 259.647 279.24 261.642C278.245 263.637 271.247 273.417 271.247 275.609Z" fill="#F1921B"/>
<path d="M297.002 277.006C293.824 277.006 271.261 277.805 271.261 275.614C271.261 273.422 278.245 263.652 279.24 261.656C280.236 259.661 289.808 252.484 297.787 250.689C297.787 250.689 287.942 264.36 297.002 277.006Z" fill="#EB7200"/>
<path d="M478.385 199.821C478.385 199.821 443.335 212.147 411.965 209.539L414.775 227.76C414.775 227.76 456.636 221.061 479.869 205.903L478.385 199.821Z" fill="#EB7200"/>
<path d="M175.142 600.024H252.647C252.724 598.842 252.752 597.713 252.729 596.627H175.041C174.956 597.76 174.99 598.898 175.142 600.024Z" fill="#3F4D79"/>
<path d="M244.75 565.333C244.472 573.784 252.642 579.138 252.642 596.603H175.142C175.142 596.603 174.017 581.951 189.501 578.573C204.985 575.195 219.095 570.683 220.502 565.333H244.75Z" fill="#FFB000"/>
<path d="M219.971 581.119L212.897 570.649" stroke="#3F4D79" stroke-width="5" stroke-miterlimit="10" stroke-linecap="round"/>
<path d="M214.452 582.392L207.799 572.774" stroke="#3F4D79" stroke-width="5" stroke-miterlimit="10" stroke-linecap="round"/>
<path d="M207.234 582.817L201.854 574.047" stroke="#3F4D79" stroke-width="5" stroke-miterlimit="10" stroke-linecap="round"/>
<path d="M328.099 299.888C328.099 299.888 209.809 292.49 181.063 326.3C152.316 360.11 208.115 480.689 213.753 553.941C213.753 553.941 242.06 556.759 253.552 553.941C265.044 551.123 275.047 425.888 246.09 391.513C246.09 391.513 356.176 416.83 399.105 384.901C442.033 352.971 345.957 300.49 328.099 299.888Z" fill="#3C4564"/>
<path d="M220.512 565.334C228.371 567.989 236.886 567.989 244.745 565.334L247.038 554.883C247.038 554.883 231.98 555.644 218.224 554.328L220.512 565.334Z" fill="#F1921B"/>
<path d="M0 482.699L61.4806 529.873C62.3517 528.811 63.1382 527.772 63.8402 526.758L2.60374 479.77C1.62688 480.644 0.7533 481.626 0 482.699Z" fill="#3F4D79"/>
<path d="M76.8112 497.288C71.441 503.824 74.667 513.044 64.0269 526.901L2.54633 479.727C2.54633 479.727 10.5778 467.421 24.9321 474.172C39.2863 480.924 53.2098 485.929 57.5893 482.536L76.8112 497.288Z" fill="#FFB000"/>
<path d="M47.38 493.981L48.141 481.785" stroke="#3F4D79" stroke-width="5" stroke-miterlimit="10" stroke-linecap="round"/>
<path d="M42.7085 491.01L43.4696 480.086" stroke="#3F4D79" stroke-width="5" stroke-miterlimit="10" stroke-linecap="round"/>
<path d="M38.037 488.039L38.7981 478.387" stroke="#3F4D79" stroke-width="5" stroke-miterlimit="10" stroke-linecap="round"/>
<path d="M418.781 388.298C417.01 397.839 316.353 420.959 209.245 353.368C209.245 353.368 202.204 434.903 93.9799 494.044C93.9799 494.044 70.4311 485.546 59.8484 466.87C59.8484 466.87 130.447 384.336 157.629 308.543C169.039 276.719 312.654 293.38 333.651 299.888C354.649 306.395 426.674 345.775 418.781 388.298Z" fill="#3F4D79"/>
<path d="M57.5893 482.536C57.5893 482.536 62.2273 496.814 76.8113 497.288L86.317 490.551C77.7216 486.158 70.0771 480.115 63.8211 472.765L57.5893 482.536Z" fill="#F1921B"/>
<path d="M326.29 56.2701C326.29 56.2701 330.765 68.0314 359.794 79.2376C359.794 79.2376 339.366 107.191 318.589 133.455C318.589 133.455 310.26 109.325 295.207 99.3293L326.29 56.2701Z" fill="#F1921B"/>
<path d="M295.179 99.3198C299.616 102.349 303.354 106.44 306.446 110.803C316.018 103.626 326.783 91.0275 329.971 81.8884C331.545 77.3667 327.376 65.1413 324.959 58.0789L295.179 99.3198Z" fill="#EB7200"/>
<path d="M326.874 58.5669C326.874 62.3948 330.2 74.18 326.175 78.9074C318.814 87.5537 297.725 101.396 287.353 100.817C279.963 100.42 269.495 68.3711 267.935 63.5815C266.374 58.7918 259.635 39.5853 264.422 34.4511C269.208 29.3169 309.217 18.082 317.167 34.6281C325.979 52.9686 326.874 58.5669 326.874 58.5669Z" fill="#F1921B"/>
<path d="M247.961 23.3119C251.891 49.0114 268.634 52.3704 301.616 33.0682C316.727 24.2305 306.044 40.0589 314.539 53.8011L317.315 54.8346C317.225 53.4518 317.028 47.7387 319.871 47.7243C324.059 47.7243 325.347 54.0595 325.749 57.9687L327.357 58.5668C327.357 58.5668 327.53 29.9198 323.466 20.8141C313.415 -1.72743 284.361 10.4501 277.235 14.2828C254.748 26.3646 247.961 23.3119 247.961 23.3119Z" fill="#FFB000"/>
<path d="M302.358 31.1016C278.905 49.6095 260.478 53.9972 251.326 43.1164" stroke="#FFB000" stroke-width="4" stroke-miterlimit="10"/>
<path d="M321.92 39.5201L321.966 39.507C327.58 37.9105 333.425 41.1658 335.022 46.778L336.324 51.3527C337.921 56.9649 334.665 62.8088 329.051 64.4054L329.005 64.4184C323.391 66.015 317.545 62.7597 315.948 57.1475L314.647 52.5728C313.05 46.9606 316.306 41.1167 321.92 39.5201Z" fill="white" stroke="#3F4D79" stroke-width="5" stroke-miterlimit="10" stroke-linecap="round"/>
<path d="M314.257 51.1981L316.353 58.5668C317.016 60.8918 318.575 62.8585 320.688 64.0348C322.801 65.211 325.294 65.5006 327.621 64.8398L330.454 64.0311C330.578 63.9976 330.698 63.9594 330.823 63.9163C328.535 64.4702 326.122 64.116 324.091 62.9284C322.059 61.7407 320.567 59.812 319.929 57.5476L317.832 50.1789C317.184 47.9184 317.437 45.4946 318.538 43.4166C319.64 41.3386 321.504 39.7681 323.739 39.0349L323.365 39.1306L320.546 39.9249C319.39 40.2481 318.31 40.7968 317.367 41.5395C316.424 42.2821 315.638 43.204 315.053 44.252C314.468 45.3 314.097 46.4533 313.96 47.6455C313.824 48.8377 313.925 50.0451 314.257 51.1981Z" fill="white" stroke="#3F4D79" stroke-width="5" stroke-miterlimit="10" stroke-linecap="round"/>
<path d="M323.365 39.1163L314.75 8.8759C314.37 7.54119 313.732 6.2943 312.87 5.20642C312.008 4.11855 310.941 3.21101 309.728 2.53563C308.516 1.86025 307.182 1.43026 305.803 1.27022C304.425 1.11017 303.028 1.22321 301.693 1.60288L271.06 10.3114C267.269 11.388 265.546 14.3785 266.628 18.1729" stroke="#3F4D79" stroke-width="5" stroke-miterlimit="10" stroke-linecap="round"/>
<path d="M180.249 278.212H314.549C320.68 278.212 324.567 272.083 321.609 267.078L276.139 190.199C272.185 183.5 264.651 179.356 256.438 179.356H122.133C116.002 179.356 112.115 185.486 115.073 190.491L160.544 267.369C164.511 274.059 172.055 278.212 180.249 278.212Z" fill="#EAEEFF"/>
<path d="M181.565 280.681H310.351C316.358 280.681 320.163 274.676 317.263 269.771L272.716 194.453C268.839 187.897 261.444 183.83 253.413 183.83H124.627C118.62 183.83 114.815 189.835 117.715 194.74L162.262 270.054C166.139 276.609 173.534 280.681 181.565 280.681Z" fill="#C0C1FF"/>
<path d="M180.249 278.212H314.549C320.68 278.212 324.567 272.083 321.609 267.078L276.139 190.199C272.185 183.5 264.651 179.356 256.438 179.356H122.133C116.002 179.356 112.115 185.486 115.073 190.491L160.544 267.369C164.511 274.059 172.055 278.212 180.249 278.212Z" stroke="#00A3FF" stroke-width="5" stroke-miterlimit="10"/>
<path d="M178.44 278.312H423.678C426.263 278.312 428.359 280.408 428.359 282.992V284.026C428.359 286.61 426.263 288.705 423.678 288.705H178.44C175.854 288.705 173.759 286.61 173.759 284.026V282.992C173.759 280.408 175.854 278.312 178.44 278.312Z" fill="#D1D1FF" stroke="#00A3FF" stroke-width="6" stroke-miterlimit="10"/>
</g>
<defs>
<clipPath id="clip0">
<rect width="512" height="600" fill="white" transform="matrix(-1 0 0 1 512 0)"/>
</clipPath>
</defs>
</svg>
